<?xml  version="1.0" encoding="UTF-8"?>
<!DOCTYPE svg PUBLIC "-//W3C//DTD SVG 1.0//EN" "http://www.w3.org/TR/2001/REC-SVG-20010904/DTD/svg10.dtd" >
<svg xmlns="http://www.w3.org/2000/svg" >
<metadata>
<version>1.0</version>
<id><![CDATA[UniversNext for MORN W01 Cn Blk Italic]]></id>
<vendor>Monotype Imaging Inc.</vendor>
<credits>
<name>Fonts.com WebFonts</name>
<URL>http://webfonts.fonts.com</URL>
<role>Home of the Web fonts</role>
</credits>
<license>
<URL>http://webfonts.fonts.com/Legal</URL>
</license>
<copyright><![CDATA[Copyright © 2010 - 2013 Monotype GmbH.  All rights reserved.]]></copyright>
<trademark><![CDATA[Univers is a trademark of Monotype GmbH registered in the U.S. Patent and Trademark Office and may be registered in certain other jurisdictions.]]></trademark>
<licensee>
<name></name>
</licensee>
</metadata>
<defs >
<font horiz-adv-x="511" id="5626fb42-9b4f-440a-98a4-3aa25c3d2a72">
<font-face font-family="" panose-1="2 11 10 6 3 2 2 9 2 3" ascent="980" descent="-250" units-per-em="1000" alphabetic="0">
</font-face>
<missing-glyph horiz-adv-x="270" />

<glyph unicode="&#xA;" horiz-adv-x="0" />
<glyph unicode="&#xD;" horiz-adv-x="0" />
<glyph unicode=" " horiz-adv-x="270" />
<glyph unicode="!" horiz-adv-x="313" d="M166 201H57L179 723H342L166 201ZM119 0H-11L26 129H156L119 0Z"  />
<glyph unicode="&quot;" horiz-adv-x="445" d="M420 416H331L304 718H447L420 416ZM223 416H133L106 718H250L223 416Z"  />
<glyph unicode="#" horiz-adv-x="540" d="M510 424H428L393 299H457L441 185H360L306 -6H198L252 185H186L132 -6H25L80 185H14L30 299H112L148 424H83L99 538H181L234 729H343L288 538H354L408 729H517L461 538H526L510 424ZM256 424L219 299H285L322 424H256Z"  />
<glyph unicode="$" horiz-adv-x="540" d="M551 585Q551 562 547 542T536 501H384Q388 515 391 530T395 560Q395 584 382 594T346 605Q328 605 311 598T282 579T262 551T254 515Q254 491 270 473T310 437T362 402T415 364T455 317T471 257Q471 242 469 228T462 199Q449 151 426 118T371 64T301 33T219 20L185 -87H111L145 20Q115 21 87 27T36 47T0 83T-14 140Q-14 163 -9 185T2 228H158Q153 214 150 199T147 168Q147 140 162 129T204 117Q247 117 275 146T303 216Q303 241 287 260T247 295T194 328T142 363T101 407T85 467Q85 481 87 493T93 520Q108 568 131 601T184 654T252 684T333 698L363 799H437L407 699Q435 698 461 692T507 673T539 638T551 585Z"  />
<glyph unicode="%" horiz-adv-x="790" d="M403 640Q403 614 399 589T386 539Q374 499 359 467T322 411T267 375T190 362Q164 362 142 367T104 384T78 415T68 462Q68 482 72 502T82 543Q93 583 108 617T145 676T200 715T279 729Q302 729 324 725T364 712T392 685T403 640ZM180 -27H103L616 748H693L180 -27ZM723 267Q723 241 718 216T705 166Q693 126 678 94T641 38T587 2T510 -11Q484 -11 462 -6T424 12T398 43T388 89Q388 109 391 129T401 170Q412 210 427 244T465 303T520 342T599 356Q623 356 645 352T684 339T712 312T723 267ZM296 623Q296 637 291 649T268 662Q246 662 229 639T200 584T182 520T175 470Q175 456 180 443T202 430Q224 430 241 453T271 509T289 573T296 623ZM616 250Q616 264 610 276T587 289Q565 289 548 266T518 212T500 148T494 98Q494 84 499 70T522 56Q544 56 561 79T591 135T609 199T616 250Z"  />
<glyph unicode="&amp;" horiz-adv-x="647" d="M627 325H524L431 0H164Q131 0 99 8T40 33T-2 78T-18 146Q-18 242 49 305Q78 332 117 350T201 376Q156 384 124 415T92 501Q92 521 97 539T109 575Q125 616 153 645T217 692T295 719T384 728Q404 728 425 726T463 720L432 617Q430 617 424 617T410 618T396 619T387 619Q361 619 337 612T293 589T261 551T249 496Q249 477 258 465T282 447T316 438T355 435H411L448 564H593L556 435H659L627 325ZM310 325Q196 325 166 218Q160 198 160 176Q160 157 167 144T187 124T215 113T248 110H319L379 325H310Z"  />
<glyph unicode="&apos;" horiz-adv-x="240" d="M225 416H141L111 718H254L225 416Z"  />
<glyph unicode="(" horiz-adv-x="304" d="M357 723Q295 623 247 512T166 286Q151 232 141 180T124 75T113 -35T105 -156H16Q11 -107 8 -59T5 40Q5 105 10 170T34 298Q49 351 75 407T132 519T199 627T266 723H357Z"  />
<glyph unicode=")" horiz-adv-x="304" d="M263 521Q263 464 257 408T236 298Q221 245 193 185T132 64T62 -53T-6 -156H-95Q-65 -99 -37 -40T17 75T63 185T97 286Q111 335 122 390T142 503T154 616T156 723H246Q254 672 258 622T263 521Z"  />
<glyph unicode="*" horiz-adv-x="452" d="M327 508L417 392L318 337L270 475L212 337L116 395L207 514L69 489V599L210 581L126 688L221 739L271 616L317 739L415 685L329 581L471 601V488L327 508Z"  />
<glyph unicode="+" horiz-adv-x="576" d="M334 209V13H195V209H8V340H195V537H334V340H519V209H334Z"  />
<glyph unicode="&#x2c;" horiz-adv-x="270" d="M10 -98H-100L12 148H162L10 -98Z"  />
<glyph unicode="-" horiz-adv-x="352" d="M264 213H3L36 329H298L264 213Z"  />
<glyph unicode="." horiz-adv-x="270" d="M100 0H-32L10 148H143L100 0Z"  />
<glyph unicode="/" horiz-adv-x="266" d="M-19 -16H-136L285 739H404L-19 -16Z"  />
<glyph unicode="0" horiz-adv-x="540" d="M555 606Q555 570 544 519T516 409L473 262Q453 196 432 145T379 58T298 4T178 -14Q143 -14 109 -9T48 12T5 53T-12 120Q-12 161 -1 212T27 321L84 513Q100 568 122 609T177 679T256 721T366 735Q401 735 435 730T495 711T538 672T555 606ZM390 590Q390 610 381 623T349 636Q325 636 309 624T278 585T251 519T222 423L181 282Q167 236 159 196T150 130Q150 85 191 85Q213 85 229 96T259 132T285 192T312 279L354 424Q370 478 380 520T390 590Z"  />
<glyph unicode="1" horiz-adv-x="540" d="M282 0H110L268 543Q236 520 200 502T127 468L168 614Q213 638 255 664T337 723H489L282 0Z"  />
<glyph unicode="2" horiz-adv-x="540" d="M567 604Q567 552 548 505T497 416T425 336T343 263L151 104H436L406 0H-70L-35 124L172 307Q238 366 282 406T352 478T388 536T399 594Q399 614 388 626T355 638Q333 638 318 629T291 605T272 572T261 534H96Q122 645 194 691T374 738Q416 738 451 732T512 709T552 668T567 604Z"  />
<glyph unicode="3" horiz-adv-x="540" d="M551 617Q551 598 549 580T542 547Q533 514 521 487T492 438T449 401T389 377Q469 356 469 280Q469 258 464 234T451 186Q433 130 408 92T349 31T270 -3T168 -14Q131 -14 96 -10T32 7T-14 43T-32 103Q-32 125 -29 146T-19 189H146Q142 176 139 161T135 132Q135 85 180 85Q204 85 221 94T250 118T270 152T284 192Q290 212 294 232T299 270Q299 288 292 299T274 316T248 324T217 326H189L218 426Q220 425 226 425T235 424Q268 424 290 430T328 451T354 487T374 543Q378 556 380 570T383 597Q383 639 342 639Q322 639 309 632T286 612T270 583T259 550H95Q110 604 134 640T193 697T270 728T365 737Q398 737 431 732T491 713T534 676T551 617Z"  />
<glyph unicode="4" horiz-adv-x="540" d="M420 262H496L467 160H391L345 0H178L223 160H-22L14 287L316 723H553L420 262ZM129 259H259L366 623L129 259Z"  />
<glyph unicode="5" horiz-adv-x="540" d="M551 620H294L234 425Q263 451 294 462T363 474Q391 474 414 468T455 448T481 413T491 360Q491 331 485 300T470 241Q451 175 428 127T372 47T290 1T170 -14Q132 -14 98 -9T38 10T-3 46T-18 102Q-18 119 -17 134T-10 164H156Q150 146 150 127Q150 85 193 85Q215 85 231 96T259 128T280 176T300 239Q307 262 314 291T322 341Q322 362 313 374T282 386Q251 386 231 363T201 311H39L162 723H581L551 620Z"  />
<glyph unicode="6" horiz-adv-x="540" d="M569 626Q569 598 563 573H398Q400 581 402 589T404 606Q404 626 393 635T361 644Q334 644 315 624T280 574Q272 557 264 536T248 492T233 447T221 407Q253 435 282 446T356 458Q415 458 452 432T490 343Q490 311 483 280T467 220Q449 161 426 117T369 44T290 1T184 -14Q148 -14 114 -8T53 13T10 54T-7 122Q-7 167 4 214T27 303Q58 413 87 494T154 630T247 710T382 737Q420 737 454 732T513 713T554 679T569 626ZM322 322Q322 366 277 366Q256 366 241 356T213 328T192 288T176 241Q165 205 159 178T152 130Q152 85 198 85Q222 85 239 98T268 133T288 181T305 234Q311 254 316 278T322 322Z"  />
<glyph unicode="7" horiz-adv-x="540" d="M564 723Q564 721 558 702T546 661T534 619T528 600L191 0H8L390 618H127L157 723H564Z"  />
<glyph unicode="8" horiz-adv-x="540" d="M561 612Q561 562 547 515T497 429Q465 396 406 379Q477 351 477 279Q477 259 473 241T464 204Q448 144 425 103T368 35T289 -2T182 -14Q151 -14 116 -10T52 8T3 46T-17 112Q-17 135 -14 155T-4 197Q16 270 52 315T153 379Q121 390 104 414T87 474Q87 493 90 510T99 545Q128 648 195 692T366 737Q403 737 438 732T500 713T544 675T561 612ZM398 599Q398 639 354 639Q334 639 320 631T296 608T279 573T265 531Q260 516 257 501T253 470Q253 427 295 427Q316 427 331 437T356 462T373 496T385 532Q390 547 394 565T398 599ZM310 280Q310 329 265 329Q230 329 207 296T167 214Q159 191 155 169T151 131Q151 109 162 96T196 83Q219 83 235 93T262 120T281 158T295 199Q300 218 305 239T310 280Z"  />
<glyph unicode="9" horiz-adv-x="540" d="M553 603Q553 572 547 538T531 468T511 397T491 332Q464 241 440 176T380 68T294 6T165 -14Q128 -14 94 -9T34 10T-8 47T-24 105Q-24 120 -22 133T-16 161H150Q145 141 145 125Q145 103 154 92T188 80Q208 80 223 91T251 119T272 158T288 200Q299 232 308 266T325 324Q299 302 270 288T197 274Q134 274 96 303T57 398Q57 423 61 445T72 491Q88 550 112 595T170 672T250 720T359 737Q394 737 429 732T491 711T536 670T553 603ZM392 591Q392 613 381 625T346 638Q323 638 307 625T278 590T258 545T243 499Q237 479 231 456T225 411Q225 366 270 366Q295 366 312 379T341 412T361 457T375 504Q381 524 386 547T392 591Z"  />
<glyph unicode=":" horiz-adv-x="270" d="M203 357H70L113 505H245L203 357ZM100 0H-32L10 148H143L100 0Z"  />
<glyph unicode=";" horiz-adv-x="270" d="M206 358H74L117 505H248L206 358ZM10 -98H-100L14 148H162L10 -98Z"  />
<glyph unicode="&lt;" horiz-adv-x="576" d="M8 209V340L519 537V389L192 275L519 163V12L8 209Z"  />
<glyph unicode="=" horiz-adv-x="576" d="M8 325V456H519V325H8ZM8 93V224H519V93H8Z"  />
<glyph unicode="&gt;" horiz-adv-x="576" d="M8 12V163L336 275L8 389V537L519 340V209L8 12Z"  />
<glyph unicode="?" horiz-adv-x="469" d="M511 623Q511 582 499 549T464 486T410 428T341 368Q312 343 295 324T269 274L249 201H129L153 285Q165 327 191 363T249 432Q297 482 322 518T348 587Q348 607 336 618T304 629Q281 629 265 619T239 594T221 559T209 521H71Q86 576 106 617T157 685T230 725T332 739Q361 739 392 735T450 718T494 683T511 623ZM198 0H68L104 129H234L198 0Z"  />
<glyph unicode="@" horiz-adv-x="890" d="M863 412Q863 357 848 299T800 194T718 116T600 85Q549 85 516 105T475 163Q451 126 420 107T347 88Q280 88 251 122T221 214Q221 237 226 263T240 316Q273 413 321 461T443 510Q478 510 504 495T539 457L555 501H697L612 258Q607 245 604 233T600 211Q600 197 607 189T628 181Q655 181 678 203T719 258T745 331T755 407Q755 461 740 505T695 581T618 630T508 648Q425 648 355 611T233 512T152 372T122 214Q122 93 185 29T377 -35Q443 -35 499 -20T609 25L647 -56Q587 -91 516 -111T366 -131Q283 -131 217 -108T105 -40T35 66T10 208Q10 309 46 404T149 574T309 693T516 738Q600 738 665 714T774 646T840 542T863 412ZM484 300Q495 332 502 356T510 398Q510 413 503 422T479 432Q448 432 428 400T384 301Q376 278 367 253T358 211Q358 197 366 188T388 179Q416 179 438 205T484 300Z"  />
<glyph unicode="A" horiz-adv-x="635" d="M533 0H353L361 151H165L85 0H-100L298 723H543L533 0ZM221 267H368L384 595L221 267Z"  />
<glyph unicode="B" horiz-adv-x="609" d="M617 600Q617 557 603 512T554 433Q510 390 436 380Q482 372 509 343T536 264Q536 238 529 209T510 152T482 100T446 59Q405 24 351 12T216 0H-36L171 723H449Q480 723 510 718T564 698T602 661T617 600ZM444 556Q444 574 436 584T416 600T389 606T360 608H309L257 427Q265 427 283 427T309 426Q352 426 379 440T424 489Q431 502 437 521T444 556ZM362 262Q362 281 354 291T333 307T305 314T275 316H226L168 116H217Q251 116 274 123T314 148Q323 157 331 171T347 202T358 234T362 262Z"  />
<glyph unicode="C" horiz-adv-x="590" d="M617 597Q617 567 612 542T598 489H424Q430 509 435 529T440 570Q440 598 424 609T382 621Q347 621 323 600T282 544T251 465T224 374Q218 353 210 326T195 269T182 212T177 162Q177 132 189 117T233 102Q266 102 287 116T321 153T343 202T359 255H537Q517 184 495 133T438 49T351 0T220 -16Q180 -16 141 -10T70 15T19 64T-1 143Q-1 198 11 248T39 352Q64 439 88 510T150 632T247 711T403 739Q440 739 478 734T547 712T597 669T617 597Z"  />
<glyph unicode="D" horiz-adv-x="636" d="M635 564Q635 530 626 477T602 370T572 267T544 192Q515 130 486 93T417 35T326 7T199 0H-36L171 723H405Q445 723 486 718T560 697T614 649T635 564ZM452 529Q452 573 429 588T364 603H313L174 119H225Q259 119 281 126T320 147T350 185T378 240Q388 261 400 299T424 380T444 463T452 529Z"  />
<glyph unicode="E" horiz-adv-x="519" d="M559 605H315L264 427H481L448 314H231L175 118H422L388 0H-36L171 723H592L559 605Z"  />
<glyph unicode="F" horiz-adv-x="492" d="M542 605H315L263 425H482L449 312H230L141 0H-36L171 723H576L542 605Z"  />
<glyph unicode="G" horiz-adv-x="610" d="M620 588Q620 560 618 542T607 496H430Q435 514 439 532T444 570Q444 621 388 621Q356 621 333 606T294 563T264 500T238 421Q212 337 195 269T178 168Q178 101 244 101Q267 101 288 104T330 115L374 267H305L339 384H576L473 25Q414 5 353 -5T229 -16Q188 -16 147 -10T73 13T20 61T-1 143Q-1 184 10 238T39 352Q68 456 96 529T165 649T264 717T413 739Q454 739 491 731T557 704T603 658T620 588Z"  />
<glyph unicode="H" horiz-adv-x="646" d="M475 0H297L388 319H233L142 0H-36L171 723H349L268 438H423L504 723H682L475 0Z"  />
<glyph unicode="I" horiz-adv-x="313" d="M142 0H-36L171 723H349L142 0Z"  />
<glyph unicode="J" horiz-adv-x="549" d="M450 228Q432 163 410 117T356 42T277 -2T161 -16Q122 -16 87 -10T24 12T-19 53T-35 117Q-35 155 -27 189T-8 259H166Q158 232 150 203T141 144Q141 103 179 103Q201 103 216 116T242 148T260 189T273 232L413 723H591L450 228Z"  />
<glyph unicode="K" horiz-adv-x="609" d="M426 381L505 0H318L257 395L499 723H704L426 381ZM141 0H-36L171 723H348L141 0Z"  />
<glyph unicode="L" horiz-adv-x="483" d="M365 0H-36L171 723H348L176 120H399L365 0Z"  />
<glyph unicode="M" horiz-adv-x="891" d="M721 0H557L733 610L432 0H239L290 611L114 0H-36L171 723H440L378 150L644 723H928L721 0Z"  />
<glyph unicode="N" horiz-adv-x="678" d="M508 0H256L278 590L109 0H-36L171 723H422L401 133L570 723H715L508 0Z"  />
<glyph unicode="O" horiz-adv-x="625" d="M627 577Q627 544 618 497T595 402T566 311T541 240Q515 175 492 127T434 47T349 0T219 -16Q178 -16 139 -9T68 16T18 65T-1 146Q-1 177 6 219T25 305T49 388T71 454Q94 520 118 572T179 662T270 719T407 739Q449 739 489 732T559 707T608 658T627 577ZM452 556Q452 585 437 603T389 621Q358 621 337 609T300 571T270 506T237 413L205 318Q194 283 184 241T173 166Q173 134 189 118T236 102Q266 102 287 113T323 144T349 191T370 248L407 361Q427 421 439 472T452 556Z"  />
<glyph unicode="P" horiz-adv-x="601" d="M631 577Q631 547 625 514T607 450T578 390T537 341Q515 321 490 309T437 291T376 282T309 280H221L141 0H-36L171 723H436Q472 723 506 717T569 694T614 649T631 577ZM449 545Q449 580 426 592T372 605H311L252 398H311Q354 398 383 413T432 465Q441 483 445 504T449 545Z"  />
<glyph unicode="Q" horiz-adv-x="633" d="M627 577Q627 556 623 530T613 475T599 416T581 357Q570 322 560 292T541 240Q526 202 504 165T449 101Q478 107 507 111T566 116L533 0H416Q378 0 350 -2T295 -7Q272 -9 250 -10T205 -11Q165 -10 128 -3T63 21T17 69T-1 146Q-1 177 6 219T25 305T49 388T71 454Q94 520 118 572T179 662T270 719T407 739Q449 739 489 732T559 707T608 658T627 577ZM452 556Q452 585 437 603T389 621Q358 621 337 609T300 571T270 506T237 413L205 318Q194 283 184 241T173 166Q173 134 189 121T236 107Q266 107 287 117T323 147T349 192T370 248L407 361Q427 421 439 472T452 556Z"  />
<glyph unicode="R" horiz-adv-x="631" d="M637 589Q637 554 627 514T600 448Q586 426 572 411T539 385T499 367T446 352Q487 347 510 324T533 258Q533 230 528 200T515 137T500 70T488 0H309Q324 77 338 132T352 239Q352 256 346 266T329 283T304 291T274 293H225L141 0H-36L171 723H444Q475 723 509 718T572 699T618 659T637 589ZM451 549Q451 567 444 578T426 595T401 603T371 605H312L255 405H312Q369 405 400 430T445 509Q447 519 449 528T451 549Z"  />
<glyph unicode="S" horiz-adv-x="562" d="M398 516Q403 532 407 548T412 578Q412 601 396 611T358 621Q323 621 296 598T269 536Q269 499 292 474T354 419L417 371Q451 345 473 314T496 233Q496 179 478 138T419 59Q376 20 321 2T188 -16Q153 -16 116 -11T47 9T-4 51T-24 122Q-24 151 -20 176T-7 230H167Q162 211 157 192T151 153Q151 125 167 114T210 102Q253 102 282 129T311 198Q311 230 295 255T240 309L166 365Q128 394 106 431T83 514Q83 558 105 598T166 672Q212 710 267 724T387 739Q420 739 455 733T519 711T567 671T586 608Q586 582 582 562T570 516H398Z"  />
<glyph unicode="T" horiz-adv-x="503" d="M569 603H413L241 0H63L235 603H75L109 723H603L569 603Z"  />
<glyph unicode="U" horiz-adv-x="661" d="M564 241Q544 172 518 123T455 44T367 -1T244 -16Q204 -16 163 -11T89 11T35 56T14 133Q14 161 18 189T31 244L168 723H345L209 247Q203 227 198 206T193 164Q193 131 210 117T259 102Q291 102 313 114T350 147T374 192T392 245L529 723H702L564 241Z"  />
<glyph unicode="V" horiz-adv-x="605" d="M306 0H84L109 723H290L235 155L525 723H704L306 0Z"  />
<glyph unicode="W" horiz-adv-x="915" d="M663 0H453L524 571L257 0H48L118 723H293L203 167L463 723H669L601 167L838 723H1005L663 0Z"  />
<glyph unicode="X" horiz-adv-x="583" d="M396 366L483 0H311L267 251L85 0H-108L203 380L117 723H294L335 493L491 723H681L396 366Z"  />
<glyph unicode="Y" horiz-adv-x="564" d="M326 239L258 0H80L154 249L96 723H272L283 401L486 723H676L326 239Z"  />
<glyph unicode="Z" horiz-adv-x="521" d="M561 588L137 118H433L399 0H-82L-43 137L386 605H105L138 723H600L561 588Z"  />
<glyph unicode="[" horiz-adv-x="303" d="M368 627H258L61 -60H171L144 -156H-92L159 723H396L368 627Z"  />
<glyph unicode="\" horiz-adv-x="266" d="M188 -16H70L80 739H200L188 -16Z"  />
<glyph unicode="]" horiz-adv-x="303" d="M101 -156H-135L-108 -60H2L199 627H89L116 723H352L101 -156Z"  />
<glyph unicode="^" horiz-adv-x="576" d="M362 286L261 544L166 286H17L199 723H328L509 286H362Z"  />
<glyph unicode="_" horiz-adv-x="500" d="M-103 -125V-75H397V-125H-103Z"  />
<glyph unicode="`" horiz-adv-x="245" d="M173 580L67 724H215L262 580H173Z"  />
<glyph unicode="a" horiz-adv-x="523" d="M480 405Q480 389 476 370T466 330T454 290T444 254Q427 189 410 128T381 0H221L235 65Q201 26 168 8T83 -11Q58 -11 36 -4T-3 16T-30 50T-40 98Q-40 133 -28 167T3 227Q25 258 58 277T130 306T208 319T287 322H302Q307 342 313 363T319 401Q319 419 308 426T280 434Q247 434 232 412T208 362H43Q56 407 79 437T135 484T208 509T296 516Q324 516 356 513T416 498T462 464T480 405ZM263 245Q215 245 179 220T132 147Q130 140 129 133T128 118Q128 98 138 90T168 82Q196 82 215 100T246 143T265 197T279 245H263Z"  />
<glyph unicode="b" horiz-adv-x="551" d="M512 407Q512 375 503 334T484 259Q466 194 447 144T400 60T335 7T242 -11Q204 -11 172 2T127 53L112 0H-51L-22 93L158 723H324L246 452Q278 485 312 500T393 516Q447 516 479 491T512 407ZM344 383Q344 403 335 414T305 426Q283 426 266 412T234 374T209 319T189 255Q185 241 180 225T171 191T165 156T162 124Q162 104 171 90T201 76Q225 76 242 91T272 131T296 190T318 259Q322 272 326 288T335 320T341 353T344 383Z"  />
<glyph unicode="c" horiz-adv-x="494" d="M479 390Q479 370 477 358T469 327H310Q314 341 317 355T320 383Q320 423 280 423Q259 423 243 412T214 379T188 322T163 239Q156 214 148 183T139 126Q139 105 147 93T179 81Q199 81 213 89T238 112T256 145T270 183H429Q413 130 391 93T336 32T262 -1T163 -12Q128 -12 95 -6T36 15T-5 56T-21 123Q-21 154 -16 185T0 248Q18 311 40 360T95 444T174 497T288 516Q325 516 359 511T420 491T463 453T479 390Z"  />
<glyph unicode="d" horiz-adv-x="550" d="M420 94Q418 88 415 75T407 47T399 19T394 0H232L247 53Q218 21 187 5T110 -11Q51 -11 15 17T-21 104Q-21 142 -13 180T7 256Q22 308 38 355T78 438T141 495T238 516Q257 516 275 513T309 503T337 483T357 452L434 723H600L420 94ZM327 382Q327 401 317 414T283 428Q262 428 246 414T217 376T193 321T172 255Q164 227 155 191T145 125Q145 104 154 91T187 78Q211 78 228 94T258 135T281 192T299 253Q307 280 317 317T327 382Z"  />
<glyph unicode="e" horiz-adv-x="515" d="M478 383Q478 343 469 306T448 232H161Q153 206 145 175T137 117Q137 74 178 74Q197 74 211 82T236 104T252 135T264 168H426Q397 70 336 29T171 -12Q136 -12 102 -6T40 15T-4 57T-21 124Q-21 157 -14 190T1 250Q20 315 43 365T101 448T182 499T295 516Q330 516 363 510T421 488T462 448T478 383ZM319 390Q319 430 280 430Q258 430 243 419T217 391T199 354T187 317H304Q309 334 314 352T319 390Z"  />
<glyph unicode="f" horiz-adv-x="321" d="M390 637H380Q356 637 341 631T317 613T302 584T290 544L279 504H351L324 411H252L134 0H-31L87 411H22L49 504H114L127 549Q138 588 150 621T183 679T236 717T320 731Q367 731 415 725L390 637Z"  />
<glyph unicode="g" horiz-adv-x="544" d="M536 504Q529 484 523 464T511 422L385 -15Q369 -70 344 -105T285 -161T210 -189T120 -197Q84 -197 49 -193T-15 -177T-61 -145T-79 -93Q-79 -81 -78 -70T-73 -45H98Q96 -53 94 -61T92 -77Q92 -116 132 -116Q153 -116 168 -106T193 -79T211 -41T225 1Q226 5 229 14T235 34T240 54T244 68Q212 32 181 19T102 5Q76 5 54 10T15 29T-12 61T-22 110Q-22 143 -16 174T0 237Q19 304 38 356T84 443T147 497T238 516Q256 516 274 513T309 502T338 481T356 445L373 504H536ZM323 378Q323 399 313 412T280 426Q255 426 238 409T207 364T185 306T168 246Q161 222 154 194T147 140Q147 119 155 107T187 94Q208 94 224 106T253 139T276 188T296 250Q306 285 314 319T323 378Z"  />
<glyph unicode="h" horiz-adv-x="550" d="M511 427Q511 410 508 396T500 365L396 0H230L325 333Q329 347 332 361T336 390Q336 426 299 426Q279 426 265 417T240 392T222 359T210 325L117 0H-49L158 723H324L247 454Q282 485 318 500T397 516Q419 516 439 512T476 497T501 469T511 427Z"  />
<glyph unicode="i" horiz-adv-x="274" d="M289 598H123L158 720H324L289 598ZM117 0H-48L97 504H262L117 0Z"  />
<glyph unicode="j" horiz-adv-x="274" d="M289 598H124L159 720H324L289 598ZM106 -42Q91 -93 74 -123T33 -169T-25 -190T-107 -195Q-134 -195 -159 -192L-133 -103Q-117 -103 -106 -102T-86 -94T-73 -78T-62 -50L97 504H262L106 -42Z"  />
<glyph unicode="k" horiz-adv-x="515" d="M351 273L415 0H247L200 285L373 504H555L351 273ZM117 0H-49L158 723H324L117 0Z"  />
<glyph unicode="l" horiz-adv-x="274" d="M117 0H-49L158 723H324L117 0Z"  />
<glyph unicode="m" horiz-adv-x="821" d="M781 428Q781 409 778 392T769 357L667 0H501L598 338Q602 352 605 364T609 390Q609 426 572 426Q553 426 539 416T514 391T496 357T484 324L391 0H226L324 342Q328 354 330 365T333 389Q333 426 297 426Q277 426 263 416T238 391T220 357T209 323L116 0H-49L75 431Q76 435 79 445T85 467T90 488T93 504H257L241 448Q273 480 309 498T390 516Q435 516 465 502T506 448Q542 481 579 498T661 516Q685 516 707 512T745 497T771 469T781 428Z"  />
<glyph unicode="n" horiz-adv-x="550" d="M511 427Q511 410 508 395T499 363L396 0H230L325 333Q329 347 332 361T336 390Q336 426 299 426Q279 426 265 416T240 391T222 358T210 324L117 0H-49L72 423Q73 428 76 439T83 463T90 487T94 504H259L245 452Q278 484 314 500T397 516Q419 516 439 512T476 497T501 470T511 427Z"  />
<glyph unicode="o" horiz-adv-x="518" d="M480 385Q480 349 474 319T458 255Q440 190 419 141T366 57T286 6T167 -12Q132 -12 98 -6T38 15T-5 56T-21 123Q-21 155 -15 186T0 249Q18 313 40 363T96 447T177 498T294 516Q328 516 361 511T421 491T464 451T480 385ZM320 381Q320 423 278 423Q254 423 238 409T209 373T188 322T170 263L148 186Q139 156 139 126Q139 105 148 93T180 81Q202 81 218 92T245 123T265 168T282 222L307 312Q312 329 316 347T320 381Z"  />
<glyph unicode="p" horiz-adv-x="551" d="M512 408Q512 373 502 331T483 257Q468 205 452 157T409 72T343 12T242 -11Q225 -11 208 -9T176 0T149 18T130 46L61 -193H-104L65 394Q67 401 71 416T80 449T89 481T95 504H257L241 448Q303 516 392 516Q446 516 479 491T512 408ZM344 382Q344 400 336 413T306 426Q282 426 264 411T233 371T209 315T189 251Q181 223 172 189T162 126Q162 106 170 91T201 76Q223 76 239 88T269 125T294 183T318 259Q322 272 326 287T335 319T341 352T344 382Z"  />
<glyph unicode="q" horiz-adv-x="549" d="M505 389L337 -193H172L241 48Q213 19 183 4T110 -11Q52 -11 16 16T-21 105Q-21 140 -14 176T4 249Q18 298 34 346T75 431T139 492T238 516Q257 516 276 513T311 502T340 481T359 446L377 504H539L505 389ZM327 377Q327 398 318 413T284 428Q261 428 245 414T215 375T192 318T171 251Q163 224 154 189T145 125Q145 105 154 92T186 78Q208 78 224 91T253 128T277 183T299 252Q303 266 308 282T317 315T324 348T327 377Z"  />
<glyph unicode="r" horiz-adv-x="356" d="M352 382Q345 383 338 383T323 383Q292 383 271 374T234 349T209 311T192 262L117 0H-49L68 409Q75 432 81 456T94 504H253L235 439Q267 482 302 498T390 515L352 382Z"  />
<glyph unicode="s" horiz-adv-x="482" d="M461 419Q461 405 458 391T451 363H295Q298 373 300 382T302 402Q302 422 290 429T259 437Q235 437 216 421T197 379Q197 357 214 342T264 309L298 291Q346 265 374 238T402 172Q402 158 401 149T396 127Q384 86 359 59T300 17T227 -5T146 -11Q119 -11 87 -7T26 8T-22 40T-41 95Q-41 112 -38 127T-30 159H127Q124 148 121 137T118 114Q118 93 131 84T165 75Q196 75 215 94T234 143Q234 165 216 181T165 214L123 236Q78 261 54 284T30 343Q30 356 31 365T35 385Q47 424 73 449T133 489T204 510T276 516Q309 516 342 512T401 496T444 466T461 419Z"  />
<glyph unicode="t" horiz-adv-x="327" d="M326 411H250L173 141Q171 133 169 125T167 109Q167 92 179 88T206 84Q218 84 232 87L207 -1Q184 -6 160 -7T113 -9Q91 -9 70 -6T32 5T5 28T-5 68Q-5 87 -3 101T5 132L85 411H24L51 504H112L136 590L319 649L277 504H353L326 411Z"  />
<glyph unicode="u" horiz-adv-x="550" d="M416 82Q414 77 411 66T405 41T399 17T395 0H230L244 54Q211 22 177 6T96 -11Q72 -11 51 -7T14 7T-11 33T-20 75Q-20 91 -18 104T-11 135L94 504H259L163 171Q159 157 156 143T152 115Q152 96 162 87T191 78Q211 78 225 87T250 112T266 144T278 178L372 504H538L416 82Z"  />
<glyph unicode="v" horiz-adv-x="485" d="M239 0H37L44 504H208L166 117L360 504H522L239 0Z"  />
<glyph unicode="w" horiz-adv-x="763" d="M534 0H362L386 355L205 0H32L49 504H211L162 147L341 504H511L481 147L641 504H796L534 0Z"  />
<glyph unicode="x" horiz-adv-x="505" d="M325 257L389 0H224L195 171L79 0H-101L130 272L69 504H235L259 361L355 504H528L325 257Z"  />
<glyph unicode="y" horiz-adv-x="500" d="M130 -195H-37L68 -16L46 504H214L197 171L364 504H530L130 -195Z"  />
<glyph unicode="z" horiz-adv-x="425" d="M419 411L127 94H328L301 0H-81L-53 98L245 412H50L77 504H446L419 411Z"  />
<glyph unicode="{" horiz-adv-x="381" d="M471 663Q437 660 414 648T374 616T346 571T327 518L318 487Q309 455 296 425T260 369T202 328T113 308Q137 306 158 300T195 283T221 254T231 209Q231 173 218 136L209 108Q201 82 197 62T192 19Q192 -16 214 -30T268 -46L244 -131Q204 -131 169 -125T106 -105T63 -70T47 -18Q47 3 51 26T67 84L77 118Q82 137 85 155T89 193Q89 212 82 224T64 245T37 257T6 265L30 351Q71 356 96 368T139 403T170 461T200 549L210 580Q222 617 240 646T289 697T371 731T496 748L471 663Z"  />
<glyph unicode="|" horiz-adv-x="260" d="M68 -214V787H198V-214H68Z"  />
<glyph unicode="}" horiz-adv-x="381" d="M-122 -46Q-88 -43 -65 -31T-25 1T3 46T22 99L31 130Q40 162 53 192T89 248T147 289T236 309Q212 311 191 317T154 334T128 363T118 408Q118 444 131 481L140 509Q148 535 152 555T157 598Q157 633 135 647T81 663L105 748Q145 748 180 742T243 722T286 687T302 635Q302 614 298 591T282 533L272 499Q267 480 264 462T260 424Q260 405 267 393T285 372T312 360T343 352L319 266Q278 261 253 249T210 214T179 156T149 68L139 37Q127 0 109 -29T60 -80T-22 -114T-147 -131L-122 -46Z"  />
<glyph unicode="~" horiz-adv-x="576" d="M522 361Q520 323 509 290T477 232T426 193T354 179Q328 179 303 186T240 211Q222 219 209 224T187 232T170 236T153 238Q130 238 117 223T100 184H5Q7 222 18 255T49 313T100 352T172 366Q199 366 223 358T287 333Q323 317 340 312T374 307Q396 307 409 322T427 361H522Z"  />
<glyph unicode="&#xA0;" horiz-adv-x="270" />
<glyph unicode="&#xA1;" horiz-adv-x="313" d="M237 414H107L144 542H274L237 414ZM83 -181H-80L97 342H206L83 -181Z"  />
<glyph unicode="&#xA2;" horiz-adv-x="540" d="M504 390Q504 370 502 358T494 327H335Q339 341 342 355T345 383Q345 423 305 423Q284 423 268 412T239 379T213 322T188 239Q181 214 173 183T164 126Q164 105 172 93T204 81Q224 81 238 89T263 112T281 145T295 183H454Q438 130 416 93T361 32T287 -1T188 -12Q174 -12 165 -11T141 -8L93 -96H16L73 9Q42 23 23 50T4 123Q4 154 9 185T25 248Q43 311 65 360T120 444T199 497T313 516Q322 516 327 516T342 515L392 604H469L413 504Q453 492 478 466T504 390Z"  />
<glyph unicode="&#xA3;" horiz-adv-x="540" d="M575 631Q575 594 564 556H427Q432 573 432 589Q432 609 421 618T390 628Q370 628 356 620T333 598T317 568T306 535L276 435H420L387 318H243L185 116H428L395 0H-52L-19 116H42L100 318H38L71 435H133L157 515Q172 566 190 607T237 677T307 721T411 737Q439 737 468 733T521 718T560 686T575 631Z"  />
<glyph unicode="&#xA4;" horiz-adv-x="540" d="M35 194L97 255Q73 295 73 349Q73 401 97 443L35 504L114 583L176 520Q220 542 269 542Q320 542 362 520L425 583L503 504L442 443Q453 422 459 399T466 349Q466 323 460 299T442 255L503 194L425 115L362 178Q322 156 269 156Q220 156 176 178L114 115L35 194ZM348 349Q348 384 326 408T269 433Q234 433 212 409T190 349Q190 314 212 290T269 265Q304 265 326 289T348 349Z"  />
<glyph unicode="&#xA5;" horiz-adv-x="540" d="M367 355H497L472 268H325L307 208H454L430 121H283L248 0H79L114 121H-30L-6 208H139L156 268H11L36 355H164L131 723H305L281 415L435 723H615L367 355Z"  />
<glyph unicode="&#xA6;" horiz-adv-x="260" d="M68 411V662H198V411H68ZM68 -89V161H198V-89H68Z"  />
<glyph unicode="&#xA7;" horiz-adv-x="525" d="M513 600Q481 616 449 624T382 633Q370 633 356 631T329 623T309 607T300 582Q300 561 322 548T375 522Q394 514 413 505T448 483T474 453T484 414Q484 385 473 361T443 317T401 281T353 255Q376 241 390 220T404 170Q404 151 400 138Q390 97 364 68T304 19T229 -8T150 -17Q106 -17 57 -12T-34 7L2 131Q37 115 70 107T143 98Q156 98 171 100T200 107T222 123T231 151Q231 162 222 169T202 182Q174 194 147 206T99 235T64 271T51 318Q51 345 62 369T91 413T132 448T181 471Q159 485 147 510T135 561Q135 607 157 640T213 696T289 728T371 739Q416 739 459 732T545 713L513 600ZM340 386Q340 398 335 407T321 423T303 435T283 444Q267 439 251 431T221 412T200 386T191 352Q191 326 211 311T252 288Q267 294 282 303T311 324T332 352T340 386Z"  />
<glyph unicode="&#xA8;" horiz-adv-x="245" d="M347 602H220L251 713H379L347 602ZM164 602H37L68 713H195L164 602Z"  />
<glyph unicode="&#xA9;" horiz-adv-x="809" d="M573 294Q573 216 533 184T412 152Q364 152 332 162T279 195T251 258T242 356Q242 408 248 448T273 516T325 558T411 572Q492 572 531 542T570 444V430H454V441Q454 464 448 481T412 498Q396 498 387 492T372 470T366 429T364 368Q364 326 365 299T370 256T384 233T411 226Q442 226 449 245T456 296V306H573V294ZM783 361Q783 280 755 211T676 92T556 14T407 -15Q326 -15 257 13T138 92T58 211T29 361Q29 442 58 511T137 630T257 709T407 738Q487 738 556 710T675 631T754 511T783 361ZM702 361Q702 427 680 482T619 578T525 640T406 663Q342 663 288 641T195 578T133 483T111 361Q111 295 133 240T194 144T288 82T406 59Q470 59 524 81T618 144T680 239T702 361Z"  />
<glyph unicode="&#xAA;" horiz-adv-x="345" d="M378 664Q378 641 372 619Q360 571 343 522T323 423H231L236 453Q217 436 197 426T150 416Q121 416 97 431T73 478Q73 494 79 510T94 541Q108 567 127 581T170 603T220 611T276 613Q279 623 282 633T286 655Q286 666 280 672T262 679Q244 679 232 667T214 637H123Q140 691 177 710T266 730Q284 730 303 728T339 720T367 700T378 664ZM254 566Q221 566 197 551T172 497Q172 484 179 480T198 475Q214 475 225 484T243 508T255 538T263 566H254Z"  />
<glyph unicode="&#xAB;" horiz-adv-x="484" d="M134 243L171 58H39L3 253L147 447H290L134 243ZM321 243L358 58H226L190 253L334 447H477L321 243Z"  />
<glyph unicode="&#xAC;" horiz-adv-x="576" d="M380 141V325H8V456H519V141H380Z"  />
<glyph unicode="&#xAD;" horiz-adv-x="352" d="M264 213H3L36 329H298L264 213Z"  />
<glyph unicode="&#xAE;" horiz-adv-x="390" d="M433 549Q433 508 419 474T378 413T317 373T242 358Q202 358 168 373T108 414T68 474T53 549Q53 589 67 623T107 683T167 724T242 739Q283 739 318 725T378 685T418 625T433 549ZM393 549Q393 581 382 608T350 656T302 687T242 699Q210 699 183 688T136 656T104 608T92 549Q92 517 103 490T135 442T182 410T242 398Q273 398 300 410T348 442T381 490T393 549ZM274 445Q270 460 270 472T269 493Q268 505 262 511T232 518H220V445H163V653H237Q254 653 270 652T300 645T322 627T330 594Q330 555 291 543Q314 533 319 520T326 491Q327 480 327 469T332 445H274ZM270 588Q270 604 259 608T235 613H220V563H235Q248 563 259 567T270 588Z"  />
<glyph unicode="&#xAF;" horiz-adv-x="245" d="M348 619H46L67 690H369L348 619Z"  />
<glyph unicode="&#xB0;" horiz-adv-x="398" d="M370 569Q370 533 357 503T321 451T266 417T199 404Q163 404 132 416T78 450T41 502T28 569Q28 605 41 635T77 687T132 721T199 734Q235 734 266 722T320 688T357 636T370 569ZM264 569Q264 600 246 619T199 639Q171 639 153 620T134 569Q134 538 152 519T199 499Q228 499 246 518T264 569Z"  />
<glyph unicode="&#xB1;" horiz-adv-x="576" d="M334 332V186H194V332H8V464H194V610H334V464H519V332H334ZM8 0V131H519V0H8Z"  />
<glyph unicode="&#xB2;" horiz-adv-x="332" d="M433 816Q433 771 407 732T329 648L207 543H361L340 469H62L86 550L232 673Q327 753 327 798Q327 822 304 822Q278 822 266 806T248 767H150Q167 829 212 861T320 893Q339 893 359 890T395 878T422 854T433 816Z"  />
<glyph unicode="&#xB3;" horiz-adv-x="332" d="M427 820Q427 778 408 742T342 689Q379 670 379 628Q379 619 377 607T372 587Q361 552 346 529T309 491T258 470T190 463Q167 463 148 466T114 477T92 501T83 539Q83 554 85 567T92 594H190Q188 585 186 576T183 556Q183 541 191 536T213 530Q228 530 239 539T257 563T268 593T272 621Q272 635 267 642T253 653T234 656T213 657H201L217 717Q259 715 286 726T323 776Q328 791 328 804Q328 827 302 827Q279 827 267 812T249 776H152Q172 837 213 865T318 893Q337 893 356 890T391 879T417 857T427 820Z"  />
<glyph unicode="&#xB4;" horiz-adv-x="245" d="M206 580H109L227 724H390L206 580Z"  />
<glyph unicode="&#xB5;" horiz-adv-x="551" d="M231 0L244 49Q224 20 206 7T163 -6Q133 -6 121 18L61 -193H-104L94 504H260L164 169Q160 155 158 143T155 120Q155 103 163 94T193 85Q225 85 246 111T281 185L373 504H539L417 79Q411 59 406 40T396 0H231Z"  />
<glyph unicode="&#xB6;" horiz-adv-x="606" d="M435 0H304L480 614H405L229 0H99L189 321Q124 328 85 365T46 469Q46 528 76 575T157 655T275 705T419 723H642L435 0Z"  />
<glyph unicode="&#xB7;" horiz-adv-x="270" d="M158 204H25L67 353H200L158 204Z"  />
<glyph unicode="&#xB8;" horiz-adv-x="245" d="M97 -120Q97 -147 84 -168T50 -203T1 -224T-55 -232Q-82 -232 -109 -226T-160 -205L-128 -161Q-112 -169 -95 -173T-61 -178Q-32 -178 -13 -167T6 -132Q6 -105 -34 -105Q-44 -105 -53 -107T-71 -112L-90 -91L-16 1H41L-2 -61Q10 -58 22 -58Q49 -58 73 -72T97 -120Z"  />
<glyph unicode="&#xB9;" horiz-adv-x="332" d="M256 469H149L239 782Q196 754 146 737L171 824Q200 836 226 852T277 887H377L256 469Z"  />
<glyph unicode="&#xBA;" horiz-adv-x="345" d="M385 647Q385 627 382 610T373 574Q362 536 349 506T317 453T268 418T196 406Q175 406 155 409T120 421T95 445T85 485Q85 505 89 523T98 562Q109 600 121 631T153 683T201 717T273 729Q294 729 314 726T350 713T375 687T385 647ZM284 638Q284 649 280 657T263 665Q249 665 238 652T215 612Q201 580 193 548T184 495Q184 484 188 477T206 469Q218 469 227 476T242 496T254 522T264 549Q271 572 277 596T284 638Z"  />
<glyph unicode="&#xBB;" horiz-adv-x="484" d="M286 262L249 447H381L417 252L273 58H130L286 262ZM99 262L62 447H194L230 252L86 58H-57L99 262Z"  />
<glyph unicode="&#xBC;" horiz-adv-x="776" d="M153 -27H76L586 742H662L153 -27ZM193 305H86L176 618Q133 590 83 573L108 660Q137 672 163 688T214 723H314L193 305ZM658 164H691L671 94H638L611 0H506L533 93H388L411 175L596 418H731L658 164ZM489 163H563L613 334L489 163Z"  />
<glyph unicode="&#xBD;" horiz-adv-x="776" d="M150 -27H73L583 742H660L150 -27ZM203 305H96L186 618Q143 590 93 573L118 660Q147 672 173 688T224 723H324L203 305ZM733 347Q733 302 707 263T629 179L507 74H661L640 0H362L386 81L532 204Q627 284 627 329Q627 353 604 353Q578 353 566 337T548 298H450Q467 360 512 392T620 424Q639 424 659 421T695 409T722 385T733 347Z"  />
<glyph unicode="&#xBE;" horiz-adv-x="776" d="M183 -27H106L616 742H692L183 -27ZM662 164H695L675 94H642L615 0H510L537 93H392L415 175L600 418H735L662 164ZM493 163H567L617 334L493 163ZM383 656Q383 614 364 578T298 525Q335 506 335 464Q335 455 333 443T328 423Q317 388 302 365T265 327T214 306T146 299Q123 299 104 302T70 313T48 337T39 375Q39 390 41 403T48 430H146Q144 421 142 412T139 392Q139 377 147 372T169 366Q184 366 195 375T213 399T224 429T228 457Q228 471 223 478T209 489T190 492T169 493H157L173 553Q215 551 242 562T279 612Q284 627 284 640Q284 663 258 663Q235 663 223 648T205 612H108Q128 673 169 701T274 729Q293 729 312 726T347 715T373 693T383 656Z"  />
<glyph unicode="&#xBF;" horiz-adv-x="469" d="M313 414H183L219 542H349L313 414ZM346 22Q331 -34 311 -75T260 -143T187 -183T85 -197Q56 -197 25 -193T-33 -176T-77 -140T-94 -80Q-94 -36 -79 -1T-40 65T14 121T76 174Q106 199 123 219T148 269Q152 286 156 300Q159 312 162 324T168 342H288L264 257Q255 226 237 198T198 144T153 94T112 47T81 2T69 -44Q69 -64 81 -75T114 -86Q137 -86 152 -76T178 -51T196 -16T208 22H346Z"  />
<glyph unicode="&#xC0;" horiz-adv-x="635" d="M533 0H353L361 151H165L85 0H-100L298 723H543L533 0ZM221 267H368L384 595L221 267ZM412 777L306 921H454L501 777H412Z"  />
<glyph unicode="&#xC1;" horiz-adv-x="635" d="M533 0H353L361 151H165L85 0H-100L298 723H543L533 0ZM221 267H368L384 595L221 267ZM445 777H348L466 921H629L445 777Z"  />
<glyph unicode="&#xC2;" horiz-adv-x="635" d="M533 0H353L361 151H165L85 0H-100L298 723H543L533 0ZM221 267H368L384 595L221 267ZM498 777L448 858L353 777H250L394 921H525L587 777H498Z"  />
<glyph unicode="&#xC3;" horiz-adv-x="635" d="M533 0H353L361 151H165L85 0H-100L298 723H543L533 0ZM221 267H368L384 595L221 267ZM649 911Q639 888 625 867T593 828T553 801T504 790Q485 790 467 795T431 807T395 818T358 824Q340 824 327 812T306 783H242Q252 806 266 827T299 866T340 893T390 904Q409 904 427 899T461 886T494 874T525 868Q547 868 562 880T587 911H649Z"  />
<glyph unicode="&#xC4;" horiz-adv-x="635" d="M533 0H353L361 151H165L85 0H-100L298 723H543L533 0ZM221 267H368L384 595L221 267ZM585 789H458L489 900H617L585 789ZM402 789H275L306 900H433L402 789Z"  />
<glyph unicode="&#xC5;" horiz-adv-x="635" d="M533 0H353L361 151H165L85 0H-100L298 723H543L533 0ZM221 267H368L384 595L221 267ZM557 860Q557 837 549 818T526 784T492 762T449 753Q426 753 407 761T373 784T350 817T341 860Q341 882 349 902T372 936T406 958T449 967Q472 967 491 959T525 936T548 902T557 860ZM506 860Q506 885 490 902T449 920Q425 920 409 903T392 860Q392 835 408 818T449 800Q473 800 489 817T506 860Z"  />
<glyph unicode="&#xC6;" horiz-adv-x="780" d="M815 604H556L537 427H751L718 314H528L507 119H689L655 0H324L341 152H147L63 0H-110L310 723H849L815 604ZM206 267H351L396 619L206 267Z"  />
<glyph unicode="&#xC7;" horiz-adv-x="590" d="M617 597Q617 567 612 542T598 489H424Q430 509 435 529T440 570Q440 598 424 609T382 621Q347 621 323 600T282 544T251 465T224 374Q218 353 210 326T195 269T182 212T177 162Q177 132 189 117T233 102Q266 102 287 116T321 153T343 202T359 255H537Q517 186 496 136T442 52T360 3T238 -16L207 -61Q219 -58 231 -58Q258 -58 282 -72T306 -120Q306 -147 293 -168T259 -203T210 -224T154 -232Q127 -232 100 -226T49 -205L81 -161Q97 -169 114 -173T148 -178Q177 -178 196 -167T215 -132Q215 -105 175 -105Q165 -105 156 -107T138 -112L119 -91L180 -14Q145 -11 113 -2T55 25T14 72T-1 143Q-1 198 11 248T39 352Q64 439 88 510T150 632T247 711T403 739Q440 739 478 734T547 712T597 669T617 597Z"  />
<glyph unicode="&#xC8;" horiz-adv-x="519" d="M559 605H315L264 427H481L448 314H231L175 118H422L388 0H-36L171 723H592L559 605ZM387 777L281 921H429L476 777H387Z"  />
<glyph unicode="&#xC9;" horiz-adv-x="519" d="M559 605H315L264 427H481L448 314H231L175 118H422L388 0H-36L171 723H592L559 605ZM420 777H323L441 921H604L420 777Z"  />
<glyph unicode="&#xCA;" horiz-adv-x="519" d="M559 605H315L264 427H481L448 314H231L175 118H422L388 0H-36L171 723H592L559 605ZM463 777L413 858L318 777H215L359 921H490L552 777H463Z"  />
<glyph unicode="&#xCB;" horiz-adv-x="519" d="M559 605H315L264 427H481L448 314H231L175 118H422L388 0H-36L171 723H592L559 605ZM550 789H423L454 900H582L550 789ZM367 789H240L271 900H398L367 789Z"  />
<glyph unicode="&#xCC;" horiz-adv-x="313" d="M142 0H-36L171 723H349L142 0ZM256 777L150 921H298L345 777H256Z"  />
<glyph unicode="&#xCD;" horiz-adv-x="313" d="M142 0H-36L171 723H349L142 0ZM289 777H192L310 921H473L289 777Z"  />
<glyph unicode="&#xCE;" horiz-adv-x="313" d="M142 0H-36L171 723H349L142 0ZM342 777L292 858L197 777H94L238 921H369L431 777H342Z"  />
<glyph unicode="&#xCF;" horiz-adv-x="313" d="M142 0H-36L171 723H349L142 0ZM429 789H302L333 900H461L429 789ZM246 789H119L150 900H277L246 789Z"  />
<glyph unicode="&#xD0;" horiz-adv-x="636" d="M635 564Q635 530 625 478T601 372T571 271T543 197Q514 135 487 97T423 37T332 8T198 0H-37L63 350H4L32 442H90L170 723H404Q444 723 485 718T559 697T614 649T635 564ZM451 529Q451 573 428 588T363 603H312L266 442H352L325 350H239L173 119H224Q258 119 280 126T319 147T349 185T377 240Q387 261 399 299T423 380T443 463T451 529Z"  />
<glyph unicode="&#xD1;" horiz-adv-x="678" d="M508 0H256L278 590L109 0H-36L171 723H422L401 133L570 723H715L508 0ZM669 911Q659 888 645 867T613 828T573 801T524 790Q505 790 487 795T451 807T415 818T378 824Q360 824 347 812T326 783H262Q272 806 286 827T319 866T360 893T410 904Q429 904 447 899T481 886T514 874T545 868Q567 868 582 880T607 911H669Z"  />
<glyph unicode="&#xD2;" horiz-adv-x="625" d="M627 577Q627 544 618 497T595 402T566 311T541 240Q515 175 492 127T434 47T349 0T219 -16Q178 -16 139 -9T68 16T18 65T-1 146Q-1 177 6 219T25 305T49 388T71 454Q94 520 118 572T179 662T270 719T407 739Q449 739 489 732T559 707T608 658T627 577ZM452 556Q452 585 437 603T389 621Q358 621 337 609T300 571T270 506T237 413L205 318Q194 283 184 241T173 166Q173 134 189 118T236 102Q266 102 287 113T323 144T349 191T370 248L407 361Q427 421 439 472T452 556ZM408 777L302 921H450L497 777H408Z"  />
<glyph unicode="&#xD3;" horiz-adv-x="625" d="M627 577Q627 544 618 497T595 402T566 311T541 240Q515 175 492 127T434 47T349 0T219 -16Q178 -16 139 -9T68 16T18 65T-1 146Q-1 177 6 219T25 305T49 388T71 454Q94 520 118 572T179 662T270 719T407 739Q449 739 489 732T559 707T608 658T627 577ZM452 556Q452 585 437 603T389 621Q358 621 337 609T300 571T270 506T237 413L205 318Q194 283 184 241T173 166Q173 134 189 118T236 102Q266 102 287 113T323 144T349 191T370 248L407 361Q427 421 439 472T452 556ZM441 777H344L462 921H625L441 777Z"  />
<glyph unicode="&#xD4;" horiz-adv-x="625" d="M627 577Q627 544 618 497T595 402T566 311T541 240Q515 175 492 127T434 47T349 0T219 -16Q178 -16 139 -9T68 16T18 65T-1 146Q-1 177 6 219T25 305T49 388T71 454Q94 520 118 572T179 662T270 719T407 739Q449 739 489 732T559 707T608 658T627 577ZM452 556Q452 585 437 603T389 621Q358 621 337 609T300 571T270 506T237 413L205 318Q194 283 184 241T173 166Q173 134 189 118T236 102Q266 102 287 113T323 144T349 191T370 248L407 361Q427 421 439 472T452 556ZM494 777L444 858L349 777H246L390 921H521L583 777H494Z"  />
<glyph unicode="&#xD5;" horiz-adv-x="625" d="M627 577Q627 544 618 497T595 402T566 311T541 240Q515 175 492 127T434 47T349 0T219 -16Q178 -16 139 -9T68 16T18 65T-1 146Q-1 177 6 219T25 305T49 388T71 454Q94 520 118 572T179 662T270 719T407 739Q449 739 489 732T559 707T608 658T627 577ZM452 556Q452 585 437 603T389 621Q358 621 337 609T300 571T270 506T237 413L205 318Q194 283 184 241T173 166Q173 134 189 118T236 102Q266 102 287 113T323 144T349 191T370 248L407 361Q427 421 439 472T452 556ZM645 911Q635 888 621 867T589 828T549 801T500 790Q481 790 463 795T427 807T391 818T354 824Q336 824 323 812T302 783H238Q248 806 262 827T295 866T336 893T386 904Q405 904 423 899T457 886T490 874T521 868Q543 868 558 880T583 911H645Z"  />
<glyph unicode="&#xD6;" horiz-adv-x="625" d="M627 577Q627 544 618 497T595 402T566 311T541 240Q515 175 492 127T434 47T349 0T219 -16Q178 -16 139 -9T68 16T18 65T-1 146Q-1 177 6 219T25 305T49 388T71 454Q94 520 118 572T179 662T270 719T407 739Q449 739 489 732T559 707T608 658T627 577ZM452 556Q452 585 437 603T389 621Q358 621 337 609T300 571T270 506T237 413L205 318Q194 283 184 241T173 166Q173 134 189 118T236 102Q266 102 287 113T323 144T349 191T370 248L407 361Q427 421 439 472T452 556ZM581 789H454L485 900H613L581 789ZM398 789H271L302 900H429L398 789Z"  />
<glyph unicode="&#xD7;" horiz-adv-x="576" d="M416 28L264 180L112 28L19 121L172 272L19 424L112 517L264 365L416 517L509 424L357 272L509 120L416 28Z"  />
<glyph unicode="&#xD8;" horiz-adv-x="625" d="M624 615Q627 597 627 577Q627 544 618 497T595 402T566 311T541 240Q515 175 492 127T434 47T349 0T219 -16Q170 -16 125 -6T48 30L-33 -52L-78 -9L11 81Q6 95 3 111T-1 146Q-1 177 6 219T25 305T49 388T71 454Q94 520 118 572T179 662T270 719T407 739Q464 739 515 726T597 675L670 749L715 708L624 615ZM452 556Q452 585 437 603T389 621Q358 621 337 609T300 571T270 506T237 413L205 318Q196 291 188 261L450 526Q452 534 452 541T452 556ZM173 158Q178 102 236 102Q266 102 287 113T323 144T349 191T370 248L407 361Q412 374 415 386T423 411L173 158Z"  />
<glyph unicode="&#xD9;" horiz-adv-x="661" d="M564 241Q544 172 518 123T455 44T367 -1T244 -16Q204 -16 163 -11T89 11T35 56T14 133Q14 161 18 189T31 244L168 723H345L209 247Q203 227 198 206T193 164Q193 131 210 117T259 102Q291 102 313 114T350 147T374 192T392 245L529 723H702L564 241ZM434 777L328 921H476L523 777H434Z"  />
<glyph unicode="&#xDA;" horiz-adv-x="661" d="M564 241Q544 172 518 123T455 44T367 -1T244 -16Q204 -16 163 -11T89 11T35 56T14 133Q14 161 18 189T31 244L168 723H345L209 247Q203 227 198 206T193 164Q193 131 210 117T259 102Q291 102 313 114T350 147T374 192T392 245L529 723H702L564 241ZM467 777H370L488 921H651L467 777Z"  />
<glyph unicode="&#xDB;" horiz-adv-x="661" d="M564 241Q544 172 518 123T455 44T367 -1T244 -16Q204 -16 163 -11T89 11T35 56T14 133Q14 161 18 189T31 244L168 723H345L209 247Q203 227 198 206T193 164Q193 131 210 117T259 102Q291 102 313 114T350 147T374 192T392 245L529 723H702L564 241ZM520 777L470 858L375 777H272L416 921H547L609 777H520Z"  />
<glyph unicode="&#xDC;" horiz-adv-x="661" d="M564 241Q544 172 518 123T455 44T367 -1T244 -16Q204 -16 163 -11T89 11T35 56T14 133Q14 161 18 189T31 244L168 723H345L209 247Q203 227 198 206T193 164Q193 131 210 117T259 102Q291 102 313 114T350 147T374 192T392 245L529 723H702L564 241ZM607 789H480L511 900H639L607 789ZM424 789H297L328 900H455L424 789Z"  />
<glyph unicode="&#xDD;" horiz-adv-x="564" d="M326 239L258 0H80L154 249L96 723H272L283 401L486 723H676L326 239ZM411 777H314L432 921H595L411 777Z"  />
<glyph unicode="&#xDE;" horiz-adv-x="601" d="M601 462Q601 432 595 399T577 335T548 275T507 226Q485 206 460 194T407 176T346 167T279 165H188L141 0H-36L171 723H348L315 608H406Q442 608 476 602T539 580T584 535T601 462ZM419 430Q419 465 396 477T342 490H281L222 283H281Q324 283 353 298T402 350Q411 368 415 389T419 430Z"  />
<glyph unicode="&#xDF;" horiz-adv-x="622" d="M592 615Q592 581 581 556T552 510T515 473T477 441T449 410T437 376Q437 353 455 332T494 288T533 236T551 168Q551 120 532 86T483 31T412 -1T330 -12Q306 -12 279 -9T229 4T191 33T176 84Q176 101 179 117T187 151H316Q313 141 311 132T309 112Q309 95 319 88T346 80Q375 80 390 102T405 151Q405 176 387 200T347 250T307 304T289 367Q289 406 311 432T360 482T409 529T431 591Q431 614 417 626T376 638Q344 638 324 626T290 593T268 543T249 480L111 0H-50L87 479Q106 545 130 592T190 671T276 717T398 732Q429 732 463 727T525 709T573 674T592 615Z"  />
<glyph unicode="&#xE0;" horiz-adv-x="523" d="M480 405Q480 389 476 370T466 330T454 290T444 254Q427 189 410 128T381 0H221L235 65Q201 26 168 8T83 -11Q58 -11 36 -4T-3 16T-30 50T-40 98Q-40 133 -28 167T3 227Q25 258 58 277T130 306T208 319T287 322H302Q307 342 313 363T319 401Q319 419 308 426T280 434Q247 434 232 412T208 362H43Q56 407 79 437T135 484T208 509T296 516Q324 516 356 513T416 498T462 464T480 405ZM263 245Q215 245 179 220T132 147Q130 140 129 133T128 118Q128 98 138 90T168 82Q196 82 215 100T246 143T265 197T279 245H263ZM302 580L196 724H344L391 580H302Z"  />
<glyph unicode="&#xE1;" horiz-adv-x="523" d="M480 405Q480 389 476 370T466 330T454 290T444 254Q427 189 410 128T381 0H221L235 65Q201 26 168 8T83 -11Q58 -11 36 -4T-3 16T-30 50T-40 98Q-40 133 -28 167T3 227Q25 258 58 277T130 306T208 319T287 322H302Q307 342 313 363T319 401Q319 419 308 426T280 434Q247 434 232 412T208 362H43Q56 407 79 437T135 484T208 509T296 516Q324 516 356 513T416 498T462 464T480 405ZM263 245Q215 245 179 220T132 147Q130 140 129 133T128 118Q128 98 138 90T168 82Q196 82 215 100T246 143T265 197T279 245H263ZM324 580H227L345 724H508L324 580Z"  />
<glyph unicode="&#xE2;" horiz-adv-x="523" d="M480 405Q480 389 476 370T466 330T454 290T444 254Q427 189 410 128T381 0H221L235 65Q201 26 168 8T83 -11Q58 -11 36 -4T-3 16T-30 50T-40 98Q-40 133 -28 167T3 227Q25 258 58 277T130 306T208 319T287 322H302Q307 342 313 363T319 401Q319 419 308 426T280 434Q247 434 232 412T208 362H43Q56 407 79 437T135 484T208 509T296 516Q324 516 356 513T416 498T462 464T480 405ZM263 245Q215 245 179 220T132 147Q130 140 129 133T128 118Q128 98 138 90T168 82Q196 82 215 100T246 143T265 197T279 245H263ZM385 580L335 661L240 580H137L281 724H412L474 580H385Z"  />
<glyph unicode="&#xE3;" horiz-adv-x="523" d="M480 405Q480 389 476 370T466 330T454 290T444 254Q427 189 410 128T381 0H221L235 65Q201 26 168 8T83 -11Q58 -11 36 -4T-3 16T-30 50T-40 98Q-40 133 -28 167T3 227Q25 258 58 277T130 306T208 319T287 322H302Q307 342 313 363T319 401Q319 419 308 426T280 434Q247 434 232 412T208 362H43Q56 407 79 437T135 484T208 509T296 516Q324 516 356 513T416 498T462 464T480 405ZM263 245Q215 245 179 220T132 147Q130 140 129 133T128 118Q128 98 138 90T168 82Q196 82 215 100T246 143T265 197T279 245H263ZM538 714Q528 691 514 670T482 631T442 604T393 593Q374 593 356 598T320 610T284 621T247 627Q229 627 216 615T195 586H131Q141 609 155 630T188 669T229 696T279 707Q298 707 316 702T350 689T383 677T414 671Q436 671 451 683T476 714H538Z"  />
<glyph unicode="&#xE4;" horiz-adv-x="523" d="M480 405Q480 389 476 370T466 330T454 290T444 254Q427 189 410 128T381 0H221L235 65Q201 26 168 8T83 -11Q58 -11 36 -4T-3 16T-30 50T-40 98Q-40 133 -28 167T3 227Q25 258 58 277T130 306T208 319T287 322H302Q307 342 313 363T319 401Q319 419 308 426T280 434Q247 434 232 412T208 362H43Q56 407 79 437T135 484T208 509T296 516Q324 516 356 513T416 498T462 464T480 405ZM263 245Q215 245 179 220T132 147Q130 140 129 133T128 118Q128 98 138 90T168 82Q196 82 215 100T246 143T265 197T279 245H263ZM474 602H347L378 713H506L474 602ZM291 602H164L195 713H322L291 602Z"  />
<glyph unicode="&#xE5;" horiz-adv-x="523" d="M480 405Q480 389 476 370T466 330T454 290T444 254Q427 189 410 128T381 0H221L235 65Q201 26 168 8T83 -11Q58 -11 36 -4T-3 16T-30 50T-40 98Q-40 133 -28 167T3 227Q25 258 58 277T130 306T208 319T287 322H302Q307 342 313 363T319 401Q319 419 308 426T280 434Q247 434 232 412T208 362H43Q56 407 79 437T135 484T208 509T296 516Q324 516 356 513T416 498T462 464T480 405ZM263 245Q215 245 179 220T132 147Q130 140 129 133T128 118Q128 98 138 90T168 82Q196 82 215 100T246 143T265 197T279 245H263ZM446 671Q446 648 438 629T415 595T381 573T338 564Q315 564 296 572T262 595T239 628T230 671Q230 693 238 713T261 747T295 769T338 778Q361 778 380 770T414 747T437 713T446 671ZM395 671Q395 696 379 713T338 731Q314 731 298 714T281 671Q281 646 297 629T338 611Q362 611 378 628T395 671Z"  />
<glyph unicode="&#xE6;" horiz-adv-x="777" d="M739 385Q739 350 731 314T711 239H423Q415 212 407 181T398 121Q398 98 407 87T440 76Q478 76 498 103T526 168H688Q659 72 601 30T446 -12Q387 -12 349 5T296 65Q273 44 252 30T207 6T158 -8T99 -12Q37 -12 -1 13T-40 100Q-40 138 -29 170T1 227Q23 255 55 273T126 301T205 314T284 318H303Q307 335 313 356T319 395Q319 432 279 432Q246 432 230 412T205 362H41Q53 407 76 436T131 484T201 509T280 516Q305 516 328 514T370 504T403 483T426 447Q455 482 495 499T580 516Q613 516 642 509T692 487T726 446T739 385ZM580 389Q580 430 541 430Q519 430 504 420T479 393T462 357T449 318H566Q571 335 575 353T580 389ZM255 243Q206 243 177 224T134 154Q132 145 130 137T128 118Q128 79 167 79Q195 79 213 95T245 136T266 190T281 243H255Z"  />
<glyph unicode="&#xE7;" horiz-adv-x="494" d="M479 390Q479 370 477 358T469 327H310Q314 341 317 355T320 383Q320 423 280 423Q259 423 243 412T214 379T188 322T163 239Q156 214 148 183T139 126Q139 105 147 93T179 81Q199 81 213 89T238 112T256 145T270 183H429Q414 133 394 98T345 40T280 4T195 -11L161 -61Q173 -58 185 -58Q212 -58 236 -72T260 -120Q260 -147 247 -168T213 -203T164 -224T108 -232Q81 -232 54 -226T3 -205L35 -161Q51 -169 68 -173T102 -178Q131 -178 150 -167T169 -132Q169 -105 129 -105Q119 -105 110 -107T92 -112L73 -91L137 -11Q105 -9 77 -2T27 21T-8 61T-21 123Q-21 154 -16 185T0 248Q18 311 40 360T95 444T174 497T288 516Q325 516 359 511T420 491T463 453T479 390Z"  />
<glyph unicode="&#xE8;" horiz-adv-x="515" d="M478 383Q478 343 469 306T448 232H161Q153 206 145 175T137 117Q137 74 178 74Q197 74 211 82T236 104T252 135T264 168H426Q397 70 336 29T171 -12Q136 -12 102 -6T40 15T-4 57T-21 124Q-21 157 -14 190T1 250Q20 315 43 365T101 448T182 499T295 516Q330 516 363 510T421 488T462 448T478 383ZM319 390Q319 430 280 430Q258 430 243 419T217 391T199 354T187 317H304Q309 334 314 352T319 390ZM301 580L195 724H343L390 580H301Z"  />
<glyph unicode="&#xE9;" horiz-adv-x="515" d="M478 383Q478 343 469 306T448 232H161Q153 206 145 175T137 117Q137 74 178 74Q197 74 211 82T236 104T252 135T264 168H426Q397 70 336 29T171 -12Q136 -12 102 -6T40 15T-4 57T-21 124Q-21 157 -14 190T1 250Q20 315 43 365T101 448T182 499T295 516Q330 516 363 510T421 488T462 448T478 383ZM319 390Q319 430 280 430Q258 430 243 419T217 391T199 354T187 317H304Q309 334 314 352T319 390ZM323 580H226L344 724H507L323 580Z"  />
<glyph unicode="&#xEA;" horiz-adv-x="515" d="M478 383Q478 343 469 306T448 232H161Q153 206 145 175T137 117Q137 74 178 74Q197 74 211 82T236 104T252 135T264 168H426Q397 70 336 29T171 -12Q136 -12 102 -6T40 15T-4 57T-21 124Q-21 157 -14 190T1 250Q20 315 43 365T101 448T182 499T295 516Q330 516 363 510T421 488T462 448T478 383ZM319 390Q319 430 280 430Q258 430 243 419T217 391T199 354T187 317H304Q309 334 314 352T319 390ZM384 580L334 661L239 580H136L280 724H411L473 580H384Z"  />
<glyph unicode="&#xEB;" horiz-adv-x="515" d="M478 383Q478 343 469 306T448 232H161Q153 206 145 175T137 117Q137 74 178 74Q197 74 211 82T236 104T252 135T264 168H426Q397 70 336 29T171 -12Q136 -12 102 -6T40 15T-4 57T-21 124Q-21 157 -14 190T1 250Q20 315 43 365T101 448T182 499T295 516Q330 516 363 510T421 488T462 448T478 383ZM319 390Q319 430 280 430Q258 430 243 419T217 391T199 354T187 317H304Q309 334 314 352T319 390ZM473 602H346L377 713H505L473 602ZM290 602H163L194 713H321L290 602Z"  />
<glyph unicode="&#xEC;" horiz-adv-x="274" d="M117 0H-48L97 504H262L117 0ZM186 580L80 724H228L275 580H186Z"  />
<glyph unicode="&#xED;" horiz-adv-x="274" d="M117 0H-48L97 504H262L117 0ZM208 580H111L229 724H392L208 580Z"  />
<glyph unicode="&#xEE;" horiz-adv-x="274" d="M117 0H-48L97 504H262L117 0ZM269 580L219 661L124 580H21L165 724H296L358 580H269Z"  />
<glyph unicode="&#xEF;" horiz-adv-x="274" d="M117 0H-48L97 504H262L117 0ZM358 602H231L262 713H390L358 602ZM175 602H48L79 713H206L175 602Z"  />
<glyph unicode="&#xF0;" horiz-adv-x="518" d="M423 670Q458 625 477 573T496 465Q496 416 489 370T467 277Q448 211 427 158T374 67T292 9T168 -12Q133 -12 99 -7T39 14T-4 55T-21 122Q-21 151 -15 180T-1 236Q15 291 33 338T79 421T150 476T257 496Q274 496 291 493T324 484T352 467T372 441Q368 486 357 532T314 611L204 551L166 597L265 653Q232 675 199 688L285 769Q311 758 335 746T380 716L484 774L526 727L423 670ZM319 370Q319 391 307 399T275 408Q252 408 237 397T210 369T191 330T178 288L156 209Q150 188 145 167T140 126Q140 105 149 93T182 81Q206 81 223 95T251 131T270 176T283 218L303 287Q309 307 314 329T319 370Z"  />
<glyph unicode="&#xF1;" horiz-adv-x="550" d="M511 427Q511 410 508 395T499 363L396 0H230L325 333Q329 347 332 361T336 390Q336 426 299 426Q279 426 265 416T240 391T222 358T210 324L117 0H-49L72 423Q73 428 76 439T83 463T90 487T94 504H259L245 452Q278 484 314 500T397 516Q419 516 439 512T476 497T501 470T511 427ZM540 714Q530 691 516 670T484 631T444 604T395 593Q376 593 358 598T322 610T286 621T249 627Q231 627 218 615T197 586H133Q143 609 157 630T190 669T231 696T281 707Q300 707 318 702T352 689T385 677T416 671Q438 671 453 683T478 714H540Z"  />
<glyph unicode="&#xF2;" horiz-adv-x="518" d="M480 385Q480 349 474 319T458 255Q440 190 419 141T366 57T286 6T167 -12Q132 -12 98 -6T38 15T-5 56T-21 123Q-21 155 -15 186T0 249Q18 313 40 363T96 447T177 498T294 516Q328 516 361 511T421 491T464 451T480 385ZM320 381Q320 423 278 423Q254 423 238 409T209 373T188 322T170 263L148 186Q139 156 139 126Q139 105 148 93T180 81Q202 81 218 92T245 123T265 168T282 222L307 312Q312 329 316 347T320 381ZM302 580L196 724H344L391 580H302Z"  />
<glyph unicode="&#xF3;" horiz-adv-x="518" d="M480 385Q480 349 474 319T458 255Q440 190 419 141T366 57T286 6T167 -12Q132 -12 98 -6T38 15T-5 56T-21 123Q-21 155 -15 186T0 249Q18 313 40 363T96 447T177 498T294 516Q328 516 361 511T421 491T464 451T480 385ZM320 381Q320 423 278 423Q254 423 238 409T209 373T188 322T170 263L148 186Q139 156 139 126Q139 105 148 93T180 81Q202 81 218 92T245 123T265 168T282 222L307 312Q312 329 316 347T320 381ZM324 580H227L345 724H508L324 580Z"  />
<glyph unicode="&#xF4;" horiz-adv-x="518" d="M480 385Q480 349 474 319T458 255Q440 190 419 141T366 57T286 6T167 -12Q132 -12 98 -6T38 15T-5 56T-21 123Q-21 155 -15 186T0 249Q18 313 40 363T96 447T177 498T294 516Q328 516 361 511T421 491T464 451T480 385ZM320 381Q320 423 278 423Q254 423 238 409T209 373T188 322T170 263L148 186Q139 156 139 126Q139 105 148 93T180 81Q202 81 218 92T245 123T265 168T282 222L307 312Q312 329 316 347T320 381ZM385 580L335 661L240 580H137L281 724H412L474 580H385Z"  />
<glyph unicode="&#xF5;" horiz-adv-x="518" d="M480 385Q480 349 474 319T458 255Q440 190 419 141T366 57T286 6T167 -12Q132 -12 98 -6T38 15T-5 56T-21 123Q-21 155 -15 186T0 249Q18 313 40 363T96 447T177 498T294 516Q328 516 361 511T421 491T464 451T480 385ZM320 381Q320 423 278 423Q254 423 238 409T209 373T188 322T170 263L148 186Q139 156 139 126Q139 105 148 93T180 81Q202 81 218 92T245 123T265 168T282 222L307 312Q312 329 316 347T320 381ZM538 714Q528 691 514 670T482 631T442 604T393 593Q374 593 356 598T320 610T284 621T247 627Q229 627 216 615T195 586H131Q141 609 155 630T188 669T229 696T279 707Q298 707 316 702T350 689T383 677T414 671Q436 671 451 683T476 714H538Z"  />
<glyph unicode="&#xF6;" horiz-adv-x="518" d="M480 385Q480 349 474 319T458 255Q440 190 419 141T366 57T286 6T167 -12Q132 -12 98 -6T38 15T-5 56T-21 123Q-21 155 -15 186T0 249Q18 313 40 363T96 447T177 498T294 516Q328 516 361 511T421 491T464 451T480 385ZM320 381Q320 423 278 423Q254 423 238 409T209 373T188 322T170 263L148 186Q139 156 139 126Q139 105 148 93T180 81Q202 81 218 92T245 123T265 168T282 222L307 312Q312 329 316 347T320 381ZM474 602H347L378 713H506L474 602ZM291 602H164L195 713H322L291 602Z"  />
<glyph unicode="&#xF7;" horiz-adv-x="576" d="M189 395V546H339V395H189ZM8 209V340H519V209H8ZM189 4V155H339V4H189Z"  />
<glyph unicode="&#xF8;" horiz-adv-x="518" d="M475 425Q480 405 480 385Q480 349 474 319T458 255Q440 190 419 141T366 57T286 6T167 -12Q125 -12 87 -4T21 26L-66 -51L-109 -7L-14 76Q-21 96 -21 123Q-21 155 -15 186T0 249Q18 313 40 363T96 447T177 498T294 516Q336 516 375 508T442 476L531 554L573 511L475 425ZM139 126Q139 105 148 93T180 81Q202 81 218 92T245 123T265 168T282 222L294 266L139 129V126ZM320 381Q320 423 278 423Q254 423 238 409T209 373T188 322T170 263L160 229L319 368Q320 373 320 381Z"  />
<glyph unicode="&#xF9;" horiz-adv-x="550" d="M416 82Q414 77 411 66T405 41T399 17T395 0H230L244 54Q211 22 177 6T96 -11Q72 -11 51 -7T14 7T-11 33T-20 75Q-20 91 -18 104T-11 135L94 504H259L163 171Q159 157 156 143T152 115Q152 96 162 87T191 78Q211 78 225 87T250 112T266 144T278 178L372 504H538L416 82ZM325 580L219 724H367L414 580H325Z"  />
<glyph unicode="&#xFA;" horiz-adv-x="550" d="M416 82Q414 77 411 66T405 41T399 17T395 0H230L244 54Q211 22 177 6T96 -11Q72 -11 51 -7T14 7T-11 33T-20 75Q-20 91 -18 104T-11 135L94 504H259L163 171Q159 157 156 143T152 115Q152 96 162 87T191 78Q211 78 225 87T250 112T266 144T278 178L372 504H538L416 82ZM347 580H250L368 724H531L347 580Z"  />
<glyph unicode="&#xFB;" horiz-adv-x="550" d="M416 82Q414 77 411 66T405 41T399 17T395 0H230L244 54Q211 22 177 6T96 -11Q72 -11 51 -7T14 7T-11 33T-20 75Q-20 91 -18 104T-11 135L94 504H259L163 171Q159 157 156 143T152 115Q152 96 162 87T191 78Q211 78 225 87T250 112T266 144T278 178L372 504H538L416 82ZM408 580L358 661L263 580H160L304 724H435L497 580H408Z"  />
<glyph unicode="&#xFC;" horiz-adv-x="550" d="M416 82Q414 77 411 66T405 41T399 17T395 0H230L244 54Q211 22 177 6T96 -11Q72 -11 51 -7T14 7T-11 33T-20 75Q-20 91 -18 104T-11 135L94 504H259L163 171Q159 157 156 143T152 115Q152 96 162 87T191 78Q211 78 225 87T250 112T266 144T278 178L372 504H538L416 82ZM497 602H370L401 713H529L497 602ZM314 602H187L218 713H345L314 602Z"  />
<glyph unicode="&#xFD;" horiz-adv-x="500" d="M130 -195H-37L68 -16L46 504H214L197 171L364 504H530L130 -195ZM323 580H226L344 724H507L323 580Z"  />
<glyph unicode="&#xFE;" horiz-adv-x="551" d="M512 408Q512 370 503 332T483 257Q469 208 453 160T410 74T343 13T240 -11Q205 -11 175 0T130 47L60 -193H-105L157 723H322L244 450Q304 516 390 516Q444 516 478 492T512 408ZM345 384Q345 404 337 416T306 428Q282 428 264 412T233 371T210 314T191 253Q183 225 175 191T166 127Q166 107 174 93T205 78Q230 78 247 96T278 141T301 200T319 261Q323 274 327 289T336 321T342 354T345 384Z"  />
<glyph unicode="&#xFF;" horiz-adv-x="500" d="M130 -195H-37L68 -16L46 504H214L197 171L364 504H530L130 -195ZM473 602H346L377 713H505L473 602ZM290 602H163L194 713H321L290 602Z"  />
<glyph unicode="&#x152;" horiz-adv-x="809" d="M848 604H626L576 427H777L744 314H543L487 118H717L683 0H372Q362 0 344 0T307 -1T270 -1T242 -2Q199 -2 156 4T79 29T23 81T1 167Q1 194 3 217T10 261T21 301T33 342Q64 455 95 529T172 646T282 707T449 725Q478 725 504 724T563 723H881L848 604ZM458 605Q454 605 441 605T424 606Q373 606 342 594T290 557T256 499T229 419Q221 394 213 368T197 316Q189 287 181 253T172 190Q172 168 178 154T197 132T225 120T261 117Q265 117 273 117T289 117T306 118T318 118L458 605Z"  />
<glyph unicode="&#x153;" horiz-adv-x="806" d="M769 382Q769 342 759 306T738 232H444Q436 206 428 176T419 120Q419 74 464 74Q485 74 499 82T524 104T541 133T553 167H715Q683 78 626 33T477 -12Q420 -12 381 6T324 73Q289 28 247 8T151 -12Q113 -12 81 -5T27 18T-8 62T-21 128Q-21 160 -15 188T0 247Q18 311 40 361T96 446T177 499T297 517Q318 517 340 514T383 502T419 478T443 440Q502 517 609 517Q644 517 673 510T724 486T757 444T769 382ZM609 387Q609 431 567 431Q544 431 529 420T502 392T484 355T472 317H595Q600 334 604 351T609 387ZM331 376Q331 426 284 426Q257 426 239 410T207 369T185 313T166 252Q158 225 149 191T139 129Q139 106 149 92T184 78Q209 78 227 92T259 130T283 184T303 248Q311 276 321 311T331 376Z"  />
<glyph unicode="&#x160;" horiz-adv-x="562" d="M398 516Q403 532 407 548T412 578Q412 601 396 611T358 621Q323 621 296 598T269 536Q269 499 292 474T354 419L417 371Q451 345 473 314T496 233Q496 179 478 138T419 59Q376 20 321 2T188 -16Q153 -16 116 -11T47 9T-4 51T-24 122Q-24 151 -20 176T-7 230H167Q162 211 157 192T151 153Q151 125 167 114T210 102Q253 102 282 129T311 198Q311 230 295 255T240 309L166 365Q128 394 106 431T83 514Q83 558 105 598T166 672Q212 710 267 724T387 739Q420 739 455 733T519 711T567 671T586 608Q586 582 582 562T570 516H398ZM358 921L408 840L503 921H606L462 777H331L269 921H358Z"  />
<glyph unicode="&#x161;" horiz-adv-x="482" d="M461 419Q461 405 458 391T451 363H295Q298 373 300 382T302 402Q302 422 290 429T259 437Q235 437 216 421T197 379Q197 357 214 342T264 309L298 291Q346 265 374 238T402 172Q402 158 401 149T396 127Q384 86 359 59T300 17T227 -5T146 -11Q119 -11 87 -7T26 8T-22 40T-41 95Q-41 112 -38 127T-30 159H127Q124 148 121 137T118 114Q118 93 131 84T165 75Q196 75 215 94T234 143Q234 165 216 181T165 214L123 236Q78 261 54 284T30 343Q30 356 31 365T35 385Q47 424 73 449T133 489T204 510T276 516Q309 516 342 512T401 496T444 466T461 419ZM259 724L309 643L404 724H507L363 580H232L170 724H259Z"  />
<glyph unicode="&#x178;" horiz-adv-x="564" d="M326 239L258 0H80L154 249L96 723H272L283 401L486 723H676L326 239ZM551 789H424L455 900H583L551 789ZM368 789H241L272 900H399L368 789Z"  />
<glyph unicode="&#x17D;" horiz-adv-x="521" d="M561 588L137 118H433L399 0H-82L-43 137L386 605H105L138 723H600L561 588ZM337 921L387 840L482 921H585L441 777H310L248 921H337Z"  />
<glyph unicode="&#x17E;" horiz-adv-x="425" d="M419 411L127 94H328L301 0H-81L-53 98L245 412H50L77 504H446L419 411ZM228 724L278 643L373 724H476L332 580H201L139 724H228Z"  />
<glyph unicode="&#x192;" horiz-adv-x="540" d="M540 614Q528 618 513 618Q487 618 470 603T443 565L396 463H474L432 365H352L218 66Q195 15 171 -26T116 -95T42 -139T-62 -154Q-73 -154 -84 -153T-107 -149L-54 -33Q-41 -39 -27 -39Q-3 -39 12 -20T37 19L193 365H130L174 463H237L290 576Q308 615 331 645T384 696T452 726T539 737Q565 737 592 734L540 614Z"  />
<glyph unicode="&#x2C6;" horiz-adv-x="245" d="M266 580L216 661L121 580H18L162 724H293L355 580H266Z"  />
<glyph unicode="&#x2DC;" horiz-adv-x="245" d="M409 714Q399 691 385 670T353 631T313 604T264 593Q245 593 227 598T191 610T155 621T118 627Q100 627 87 615T66 586H2Q12 609 26 630T59 669T100 696T150 707Q169 707 187 702T221 689T254 677T285 671Q307 671 322 683T347 714H409Z"  />
<glyph unicode="&#x2013;" horiz-adv-x="500" d="M459 214H-41L-13 316H487L459 214Z"  />
<glyph unicode="&#x2014;" horiz-adv-x="1001" d="M830 214H89L117 316H858L830 214Z"  />
<glyph unicode="&#x2018;" horiz-adv-x="263" d="M238 482H84L219 723H329L238 482Z"  />
<glyph unicode="&#x2019;" horiz-adv-x="263" d="M194 482H84L175 723H330L194 482Z"  />
<glyph unicode="&#x201A;" horiz-adv-x="263" d="M14 -100H-96L-4 142H150L14 -100Z"  />
<glyph unicode="&#x201C;" horiz-adv-x="445" d="M421 482H266L401 723H512L421 482ZM238 482H84L219 723H329L238 482Z"  />
<glyph unicode="&#x201D;" horiz-adv-x="445" d="M377 482H266L357 723H512L377 482ZM194 482H84L175 723H330L194 482Z"  />
<glyph unicode="&#x201E;" horiz-adv-x="445" d="M197 -100H86L178 142H333L197 -100ZM15 -100H-96L-4 142H150L15 -100Z"  />
<glyph unicode="&#x2020;" horiz-adv-x="452" d="M466 463H323L190 0H54L187 463H43L75 574H219L261 723H397L354 574H498L466 463Z"  />
<glyph unicode="&#x2021;" horiz-adv-x="452" d="M467 466H324L263 257H407L376 146H232L190 0H54L96 146H-47L-16 257H128L188 466H44L76 577H220L261 723H397L355 577H499L467 466Z"  />
<glyph unicode="&#x2022;" horiz-adv-x="498" d="M439 364Q439 327 425 294T386 236T328 197T258 182Q220 182 187 196T130 235T91 293T76 364Q76 401 90 434T130 491T188 530T258 544Q295 544 328 530T385 492T424 434T439 364Z"  />
<glyph unicode="&#x2026;" horiz-adv-x="1000" d="M810 0H649L696 162H856L810 0ZM476 0H317L363 162H522L476 0ZM143 0H-16L30 162H189L143 0Z"  />
<glyph unicode="&#x2030;" horiz-adv-x="977" d="M906 236Q906 214 902 193T891 152Q880 116 866 86T831 34T781 0T710 -12Q667 -12 638 4T609 69Q609 89 613 108T623 148Q633 184 647 215T683 268T733 304T805 317Q848 317 877 301T906 236ZM366 643Q366 622 362 601T351 559Q340 523 326 493T291 440T241 406T170 393Q127 393 98 409T69 474Q69 494 73 513T83 553Q93 589 107 620T142 674T192 710T264 723Q285 723 304 720T336 707T358 683T366 643ZM113 -27H36L546 742H623L113 -27ZM592 237Q592 216 588 195T577 154Q566 118 552 88T517 35T467 1T396 -12Q375 -12 356 -9T324 4T302 29T294 69Q294 89 298 108T308 148Q318 184 332 215T368 268T419 304T491 317Q512 317 530 314T562 301T584 277T592 237ZM810 227Q810 238 806 247T788 256Q770 256 755 234T728 182T710 123T704 78Q704 66 709 57T728 48Q747 48 762 70T787 123T804 182T810 227ZM269 632Q269 643 265 652T247 662Q229 662 214 640T187 587T170 528T163 484Q163 472 168 464T187 455Q206 455 221 477T246 528T263 587T269 632ZM496 227Q496 238 492 247T473 256Q455 256 440 234T413 181T395 122T389 77Q389 65 394 57T413 48Q432 48 447 70T473 123T490 182T496 227Z"  />
<glyph unicode="&#x2039;" horiz-adv-x="298" d="M138 243L175 58H43L7 253L151 447H294L138 243Z"  />
<glyph unicode="&#x203A;" horiz-adv-x="303" d="M107 262L70 447H202L238 252L94 58H-49L107 262Z"  />
<glyph unicode="&#x20A0;" horiz-adv-x="540" d="M137 0L207 244Q190 237 163 237Q135 237 109 241T64 258T33 291T21 344Q21 373 26 402T46 477Q64 538 80 586T122 669T187 720T288 738Q315 738 341 734T389 720T423 690T437 641Q437 625 434 608T423 571H298Q302 588 304 597T307 617Q307 633 300 642T274 651Q259 651 247 644T224 618T202 570T178 494Q167 457 159 422T150 365Q150 345 156 335T184 325Q210 325 225 345T250 397L273 477H560L537 391H377L344 282H486L463 201H321L287 86H448L425 0H137Z"  />
<glyph unicode="&#x20A1;" horiz-adv-x="540" d="M-44 -72L21 59Q-7 95 -7 149Q-7 188 1 234T29 346Q53 434 78 502T137 619T219 693T339 726L373 794H454L421 726Q453 723 475 716L514 794H595L539 678Q571 644 571 587Q571 570 568 552T560 511L552 483H391L397 504Q406 537 406 558Q406 609 355 609Q329 609 309 596T270 554T235 480T199 371Q177 298 166 251T155 174Q155 116 207 116Q248 116 274 145T322 245L328 263H491L486 243Q468 176 443 131T385 57T309 15T213 -2L180 -72H97L132 0Q118 2 105 5T80 14L39 -72H-44Z"  />
<glyph unicode="&#x20A2;" horiz-adv-x="540" d="M329 370Q349 405 376 418T433 431L404 329Q399 330 395 330T385 330Q345 330 327 307T298 245L257 104Q285 116 306 147T345 237L351 256H486L481 236Q461 161 432 113T366 36T284 -4T184 -15Q139 -15 104 -6T44 25T8 80T-5 163Q-5 243 29 364Q56 458 84 528T152 645T245 715T378 739Q417 739 451 732T511 707T552 661T567 592Q567 559 555 516L548 488H411L417 509Q425 539 425 563Q425 592 411 611T359 630Q327 630 302 616T257 570T218 491T180 374Q159 301 147 250T134 165Q134 127 151 110L215 332L241 423H344L329 370Z"  />
<glyph unicode="&#x20A3;" horiz-adv-x="540" d="M214 228L149 0H-17L190 723H572L539 606H323L280 456H474L451 373H256L238 312H433L410 228H214Z"  />
<glyph unicode="&#x20A4;" horiz-adv-x="540" d="M237 242L201 116H442L410 0H-51L-18 116H43L79 242H17L40 325H103L121 386H56L79 469H145L158 514Q173 566 191 607T237 675T308 717T416 732Q451 732 482 727T537 710T575 677T589 624Q589 605 586 588T578 551H425Q427 559 429 569T432 587Q432 602 426 613T398 624Q369 624 352 601T321 532L303 469H437L414 386H279L261 325H397L373 242H237Z"  />
<glyph unicode="&#x20A5;" horiz-adv-x="540" d="M22 -70L149 148L217 384Q219 391 220 397T221 410Q221 419 217 425T202 431Q184 431 172 416T151 371L44 0H-80L37 408L64 504H183L169 453Q213 512 281 512Q306 512 320 502T341 475L411 595H489L439 510Q444 511 450 511T462 512Q506 512 522 493T538 446Q538 423 530 394L418 0H294L403 383Q408 400 408 410Q408 419 404 425T388 431Q368 431 357 414T337 371L230 0H141L100 -70H22Z"  />
<glyph unicode="&#x20A6;" horiz-adv-x="540" d="M188 0L243 556L83 0H-39L35 262H-17L5 345H59L76 406H23L46 489H100L167 723H353L298 167L459 723H582L515 489H567L544 406H491L474 345H526L503 262H450L375 0H188Z"  />
<glyph unicode="&#x20A7;" horiz-adv-x="540" d="M255 504Q237 439 220 398T185 333T147 300T100 291H73L-10 0H-98L108 723H190Q236 723 258 704T280 637Q280 612 274 579T255 504ZM171 505Q184 548 190 575T197 617Q197 641 179 641H171L94 371H106Q114 371 121 376T135 395T150 436T171 505ZM339 400L250 92Q249 87 249 84T248 78Q248 65 261 65Q268 65 271 66L251 -2Q240 -5 223 -5Q194 -5 177 6T160 50Q160 68 168 95L255 400H234L255 470H275L297 547L389 574L359 470H385L365 400H339ZM488 159Q488 130 482 101T462 48T426 9T369 -6Q328 -6 310 17T292 76Q292 99 300 133L303 143H374L371 132Q366 116 364 103T361 80Q361 56 378 56Q385 56 391 62T401 79T408 103T411 129Q411 149 409 162T398 194L381 230Q376 241 372 250T365 270T361 292T359 319Q359 341 364 368T383 419T419 459T475 475Q513 475 533 455T553 400Q553 389 551 378T545 353L541 339H471L473 347Q476 358 478 369T481 391Q481 402 478 408T466 415Q457 415 451 409T440 393T435 371T433 348Q433 327 436 317T447 290L462 257Q473 231 480 209T488 159Z"  />
<glyph unicode="&#x20A8;" horiz-adv-x="540" d="M90 0Q93 25 103 64T125 143T146 219T156 273Q156 291 148 298T121 305H105L18 0H-82L124 723H249Q270 723 290 718T325 701T350 670T360 622Q360 597 354 564T337 498T313 435T285 390Q269 373 253 364T215 348Q235 341 248 328T261 292Q261 266 251 229T229 151T207 70T195 0H90ZM255 599Q255 617 248 628T221 639H199L128 391H153Q180 391 199 416Q213 434 223 460T241 514T251 565T255 599ZM484 162Q484 128 475 98T448 44T403 8T338 -6Q319 -6 301 -2T269 13T246 40T237 83Q237 110 247 143L250 154H337L333 140Q325 113 325 98Q325 69 348 69Q359 69 366 75T379 90T386 111T389 133Q389 148 385 161T367 188L344 216Q324 241 312 264T300 314Q300 346 308 375T334 427T377 462T440 475Q486 475 513 455T540 390Q540 379 539 368T534 342L530 327H442L444 337Q453 364 453 381Q453 406 431 406Q411 406 402 387T392 349Q392 315 413 294L436 268Q459 242 471 217T484 162Z"  />
<glyph unicode="&#x20A9;" horiz-adv-x="540" d="M195 0L334 571L140 0H-16L33 262H-27L-4 345H49L61 406H14L37 489H76L121 723H249L115 173L303 723H456L321 173L510 723H627L534 489H574L552 406H501L476 345H533L511 262H443L339 0H195Z"  />
<glyph unicode="&#x20AA;" horiz-adv-x="540" d="M461 154Q447 105 428 75T383 29T325 6T255 0H56L206 524H298L180 113H300Q357 113 372 165L532 723H624L461 154ZM248 199L351 558Q366 610 311 610H189L14 0H-77L129 723H332Q369 723 396 717T438 695T456 648T446 569L340 199H248Z"  />
<glyph unicode="&#x20AB;" horiz-adv-x="540" d="M257 134L272 180Q246 152 220 139T156 125Q105 125 73 148T41 226Q41 257 48 288T63 349Q75 391 88 428T122 494T175 538T257 555Q292 555 320 542T359 496L388 597H234L255 670H409L423 723H560L545 670H591L570 597H523L418 228L392 134H257ZM-29 0L-6 84H408L385 0H-29ZM315 344Q320 364 326 388T332 431Q332 447 324 460T290 473Q274 473 262 467T239 447T218 409T198 348Q192 325 185 297T178 248Q178 229 188 217T220 205Q240 205 254 215T278 243T297 287T315 344Z"  />
<glyph unicode="&#x20AC;" horiz-adv-x="540" d="M559 572Q548 596 525 611T459 627Q399 627 369 595T320 496H517L467 409H294L275 349H436L387 263H251Q249 255 245 241T237 212T231 182T228 160Q228 127 241 112T297 96Q336 96 368 112T428 158V23Q392 1 352 -6T263 -14Q219 -14 182 -8T118 15T76 57T60 124Q60 135 63 154T70 195T79 235T87 263H4L53 349H109L128 409H39L90 496H154Q174 562 200 608T263 682T353 724T478 737Q515 737 556 726T622 686L559 572Z"  />
<glyph unicode="&#x20AD;" horiz-adv-x="540" d="M399 319L441 0H255L234 395L449 723H634L410 431H529L498 319H399ZM32 431H77L161 723H326L119 0H-46L45 319H2L32 431Z"  />
<glyph unicode="&#x20AE;" horiz-adv-x="540" d="M322 237L254 0H86L140 191L55 170L79 258L165 278L182 336L94 315L118 402L206 423L260 610H97L129 723H616L584 610H429L387 465L479 487L456 404L363 381L346 321L439 343L415 260L322 237Z"  />
<glyph unicode="&#x20AF;" horiz-adv-x="540" d="M333 615Q333 591 326 551T308 463T281 364T251 268T221 186T195 130Q165 64 130 32T44 0H-82L124 723H227Q284 723 308 696T333 615ZM232 602Q232 631 207 631H198L45 99H58Q79 99 93 123T122 193Q131 215 143 250T167 327T191 411T212 493T226 560T232 602ZM499 224Q482 165 467 121T436 47T400 3T353 -12Q333 -12 319 0T302 29L254 -139H163L305 357Q324 423 358 449T431 475Q479 475 504 450T529 380Q529 350 521 312T499 224ZM402 229Q419 283 428 320T437 376Q437 387 434 390T424 394Q417 394 411 386T399 360T383 313T362 240Q345 183 335 145T325 87Q325 71 336 71Q351 71 364 107T402 229Z"  />
<glyph unicode="&#x20B0;" horiz-adv-x="540" d="M271 0L393 426H357L380 504H416L448 616Q456 644 465 665T487 701T521 723T571 731Q588 731 602 729T629 724L605 642Q600 644 597 644T590 644Q574 644 566 636T553 610L523 504H566L543 426H500L378 0H271ZM358 491Q340 427 319 387T273 324T219 293T153 284H114L32 0H-80L126 723H248Q315 723 346 694T377 607Q377 584 373 556T358 491ZM252 505Q260 532 262 552T265 586Q265 606 255 614T222 623H208L139 383H163Q196 383 215 412T252 505Z"  />
<glyph unicode="&#x20B1;" horiz-adv-x="540" d="M534 529Q532 521 530 514T526 499Q524 491 521 484T516 468H563L539 385H482Q467 357 448 337T401 303T339 284T255 277H210L130 0H-37L73 385H14L38 468H97L114 529H55L79 612H138L170 723H350Q436 723 484 698T541 612H604L581 529H534ZM361 500Q368 525 371 543T375 575Q375 599 362 607T326 616H302L234 382H256Q277 382 292 387T320 406T341 443T361 500Z"  />
<glyph unicode="&#x20B2;" horiz-adv-x="540" d="M428 724Q502 716 531 684T561 594Q561 575 558 553T548 508L544 493H397L401 508Q405 524 407 538T410 564Q410 588 398 601T356 615Q326 615 304 602T263 560T227 483T190 365Q172 303 162 256T151 175Q151 141 165 123T211 105Q236 105 255 109T295 119L340 272H283L314 382H515L414 32Q360 14 312 6T218 -4L199 -72H117L137 0Q62 8 27 44T-8 156Q-8 197 2 249T30 366Q57 462 85 528T149 638T232 702T347 726L366 794H448L428 724Z"  />
<glyph unicode="&#x20B3;" horiz-adv-x="540" d="M252 0L268 119H138L92 0H-72L-20 119H-56L-34 202H16L41 259H-18L6 343H78L244 723H497L457 343H536L512 259H449L443 202H495L473 119H434L422 0H252ZM226 343H299L337 624L226 343ZM171 202H279L287 259H193L171 202Z"  />
<glyph unicode="&#x20B4;" horiz-adv-x="540" d="M199 259Q170 233 154 202T137 139Q137 129 139 119T147 101T163 87T188 82Q227 82 250 107T294 195L298 207H447L445 200Q427 136 402 95T343 29T267 -5T174 -15Q-15 -15 -15 136Q-15 171 -7 201T19 259H-16L8 343H96Q137 374 191 403H25L48 487H347Q377 512 389 539T401 594Q401 617 389 631T350 645Q331 645 318 639T296 621T279 592T265 551L262 538H109L111 547Q123 591 142 626T190 686T261 724T359 738Q411 738 447 728T506 698T539 651T550 591Q550 535 522 487H565L542 403H446Q404 370 350 343H525L501 259H199Z"  />
<glyph unicode="&#x20B5;" horiz-adv-x="540" d="M426 725Q494 717 532 685T571 587Q571 570 568 552T560 511L552 483H391L397 504Q406 537 406 558Q406 587 390 599L255 129Q276 143 292 170T322 245L328 263H491L486 243Q468 177 444 132T386 58T312 15T218 -2L198 -72H116L136 0Q75 8 34 44T-7 149Q-7 188 1 234T29 346Q54 436 79 504T138 621T222 695T345 727L364 794H446L426 725ZM155 174Q155 139 172 125L307 594Q276 573 252 519T199 371Q177 298 166 251T155 174Z"  />
<glyph unicode="&#x20B6;" horiz-adv-x="540" d="M-33 0L86 413H27L52 504H112L175 723H329L266 504H338L362 587L531 641L492 504H566L540 413H467L388 144Q385 133 383 124T381 107Q381 78 415 78Q427 78 438 81L415 -1Q394 -6 377 -8T331 -10Q279 -10 251 11T222 77Q222 90 224 104T231 134L312 413H240L121 0H-33Z"  />
<glyph unicode="&#x20B7;" horiz-adv-x="540" d="M235 183Q235 177 234 171T231 157L210 86Q230 89 248 96T280 115T302 147T310 192Q310 224 288 251T234 302L191 333Q171 348 149 366T109 406T78 456T65 518Q65 573 87 614T149 683T241 724T355 738Q400 738 439 730T506 706T551 663T568 599Q568 585 565 567T552 521H389Q395 542 397 553T400 575Q400 598 386 612T341 627Q304 627 278 606T251 542Q251 510 267 491T307 453L355 417Q385 395 409 375T449 334T475 289T484 235Q484 175 463 132T402 60T308 17T185 0H119L164 158Q165 160 165 162T165 167Q165 178 153 178Q142 178 135 169T125 151L82 0H14L60 158Q61 160 61 162T61 166Q61 171 59 174T49 178Q38 178 31 169T21 151L-22 0H-89L-43 161L-28 216H39L32 196Q55 222 89 222Q107 222 116 215T130 193Q144 208 157 215T190 222Q211 222 223 213T235 183Z"  />
<glyph unicode="&#x20B8;" horiz-adv-x="540" d="M382 471L246 0H80L217 471H62L90 572H565L536 471H382ZM106 622L134 723H607L579 622H106Z"  />
<glyph unicode="&#x20B9;" horiz-adv-x="540" d="M512 496H439Q419 440 377 402T266 354Q309 346 333 328T358 266Q358 245 350 211T332 140T314 65T305 0H131Q134 31 142 63T159 127T175 188T182 243Q182 276 160 287T104 299H53L81 397H123Q187 397 224 421T278 496H110L132 579H289Q287 611 269 625T218 640H151L174 723H577L553 640H447Q456 617 456 587V579H535L512 496Z"  />
<glyph unicode="&#x20BA;" horiz-adv-x="540" d="M240 335L178 119H202Q229 119 247 126T280 150T305 192T329 256L335 274H493L487 251Q469 178 443 130T383 53T305 12T209 0H-20L63 289L1 273L25 360L88 376L104 433L42 417L66 504L129 520L187 723H351L306 567L452 605L428 518L281 479L265 423L411 461L388 374L240 335Z"  />
<glyph unicode="&#x2122;" horiz-adv-x="915" d="M775 367V638L693 367H622L540 638V367H449V723H596L658 516L721 723H864V367H775ZM299 649V367H202V649H100V723H400V649H299Z"  />

</font>
</defs>
</svg>
